<svg width="32" height="32" fill="none" xmlns="http://www.w3.org/2000/svg">
  <path fill-rule="evenodd" clip-rule="evenodd" d="M18.748 1.594a3.16 3.16 0 01-1.178 4.313l-9.437 5.387a.8.8 0 00-.403.695v8.456a.8.8 0 00.403.695l7.47 4.264a.8.8 0 00.794 0l7.47-4.264a.8.8 0 00.403-.695v-5.259l-6.715 3.785a3.167 3.167 0 01-4.312-1.2 3.16 3.16 0 011.202-4.308l9.607-5.415c2.927-1.65 6.548.463 6.548 3.82v9.22a6.016 6.016 0 01-3.035 5.224l-8.576 4.895a6.03 6.03 0 01-5.978 0l-8.576-4.895A6.016 6.016 0 011.4 21.087v-9.74a6.016 6.016 0 013.035-5.225L14.43.417a3.167 3.167 0 014.318 1.177z" fill="url(#paint0_linear)"/>
  <defs>
    <linearGradient id="paint0_linear" x1="23.378" y1="4.839" x2="8.413" y2="28.391" gradientUnits="userSpaceOnUse">
      <stop stop-color="#FFB45B"/>
      <stop offset="1" stop-color="#FF8A00"/>
    </linearGradient>
  </defs>
</svg>
