<svg width="30" height="32" viewBox="0 0 30 32" fill="none" xmlns="http://www.w3.org/2000/svg">
<path fill-rule="evenodd" clip-rule="evenodd" d="M17.4744 1.57932C18.321 3.07561 17.7962 4.97595 16.3022 5.82384L7.00681 11.0992C6.51969 11.3757 6.21862 11.8931 6.21862 12.4538V20.2445C6.21862 20.8053 6.51969 21.3227 7.00681 21.5992L14.0028 25.5696C14.4782 25.8394 15.0602 25.8394 15.5357 25.5696L22.5316 21.5992C23.0188 21.3227 23.3198 20.8053 23.3198 20.2445V15.126L16.2875 19.0667C14.7889 19.9065 12.8943 19.3706 12.0558 17.8697C11.2173 16.3689 11.7524 14.4714 13.251 13.6316L23.1756 8.07016C26.0254 6.47321 29.5385 8.53628 29.5385 11.8068V20.2445C29.5385 23.0483 28.0331 25.6354 25.5975 27.0177L18.6016 30.9881C16.2243 32.3373 13.3142 32.3373 10.9369 30.9881L3.94095 27.0177C1.50533 25.6354 0 23.0483 0 20.2445V12.4538C0 9.65009 1.50534 7.06293 3.94096 5.68065L13.2363 0.405298C14.7303 -0.4426 16.6278 0.0830259 17.4744 1.57932Z" fill="url(#paint0_linear)"/>
<defs>
<linearGradient id="paint0_linear" x1="12.8547" y1="12.5407" x2="5.8643" y2="29.3237" gradientUnits="userSpaceOnUse">
<stop stop-color="#FFAD33"/>
<stop offset="1" stop-color="#FF8A00"/>
</linearGradient>
</defs>
</svg>
