<svg width="144" height="40" viewBox="0 0 144 40" fill="none" xmlns="http://www.w3.org/2000/svg">
<path d="M0 8C0 3.58172 3.58172 0 8 0H135.333C139.751 0 143.333 3.58172 143.333 8V32C143.333 36.4183 139.751 40 135.333 40H8C3.58173 40 0 36.4183 0 32V8Z" fill="#EBF0FC"/>
<path d="M8 0.25H135.333C139.613 0.250214 143.083 3.71993 143.083 8V32C143.083 36.2801 139.613 39.7498 135.333 39.75H8C3.71979 39.75 0.25 36.2802 0.25 32V8C0.25 3.71979 3.71979 0.25 8 0.25Z" stroke="white" stroke-opacity="0.15" stroke-width="0.5"/>
<path d="M30.5393 17.1C30.8197 17.38 31 17.76 31 18.2V21.82C31 22.26 30.8197 22.64 30.5393 22.92L26.9142 26.54C26.6338 26.84 26.2332 27 25.8126 27H22.1874C21.7468 27 21.3662 26.84 21.0658 26.54L17.4406 22.92C17.1602 22.64 17 22.26 17 21.82V18.2C17 17.76 17.1602 17.38 17.4406 17.08L21.0658 13.46C21.3662 13.18 21.7468 13 22.1874 13H25.8126C26.2332 13 26.6338 13.18 26.9142 13.48L30.5393 17.1ZM27.6794 22.1241V17.8959C27.6794 17.0359 26.9784 16.3159 26.1172 16.3159H21.8828C21.0016 16.3159 20.3006 17.0359 20.3006 17.8959V22.1241C20.3006 22.9841 21.0016 23.6841 21.8828 23.6841H26.1172C26.9784 23.6841 27.6794 22.9841 27.6794 22.1241Z" fill="#0048FF"/>
<path d="M121.579 23.045C121.579 21.855 122.377 21.127 123.973 20.889L125.247 20.693C125.765 20.623 125.961 20.441 125.961 20.049C125.961 19.391 125.457 18.971 124.687 18.971C123.777 18.971 123.217 19.475 123.175 20.273H121.761C121.845 18.957 122.895 17.907 124.589 17.907C126.395 17.907 127.333 18.901 127.333 20.637V24.907H126.017V24.585C126.017 24.459 126.031 24.263 126.045 23.983C125.695 24.697 124.939 25.131 123.917 25.131C122.643 25.131 121.579 24.319 121.579 23.045ZM124.393 21.869C123.469 22.051 123.007 22.429 123.007 23.017C123.007 23.675 123.511 24.067 124.197 24.067C125.219 24.067 125.975 23.367 125.975 22.317V21.421C125.877 21.533 125.611 21.631 125.205 21.715L124.393 21.869Z" fill="#0048FF"/>
<path d="M114.291 18.131H115.677V18.537C115.677 18.761 115.677 18.943 115.663 19.069C116.041 18.397 116.825 17.907 117.735 17.907C119.289 17.907 120.199 18.929 120.199 20.623V24.907H118.813V20.819C118.813 19.615 118.337 19.013 117.399 19.013C116.881 19.013 116.475 19.195 116.153 19.545C115.831 19.895 115.677 20.343 115.677 20.861V24.907H114.291V18.131Z" fill="#0048FF"/>
<path d="M103.377 20.007C103.377 17.977 104.245 16.353 105.673 15.499C106.387 15.079 107.185 14.869 108.081 14.869C109.873 14.869 111.357 15.765 112.183 17.319C112.589 18.103 112.799 18.999 112.799 20.007C112.799 22.065 111.931 23.661 110.503 24.501C109.789 24.921 108.977 25.131 108.081 25.131C106.289 25.131 104.805 24.277 103.993 22.723C103.587 21.953 103.377 21.043 103.377 20.007ZM104.917 20.007C104.917 22.401 106.191 23.885 108.081 23.885C109.971 23.885 111.245 22.429 111.245 20.007C111.245 17.627 109.957 16.129 108.081 16.129C106.205 16.129 104.917 17.613 104.917 20.007Z" fill="#0048FF"/>
<path d="M92.9897 15.107H94.3757V18.453C94.3757 18.719 94.3757 18.915 94.3617 19.069C94.7397 18.383 95.4957 17.907 96.4337 17.907C97.9877 17.907 98.8977 18.929 98.8977 20.623V24.907H97.5117V20.819C97.5117 19.615 97.0357 19.013 96.0697 19.013C95.5657 19.013 95.1597 19.195 94.8517 19.545C94.5297 19.895 94.3757 20.343 94.3757 20.861V24.907H92.9897V15.107Z" fill="#0048FF"/>
<path d="M87.4248 18.131H88.7968V15.807H90.1968V18.131H91.6948V19.251H90.1968V22.737C90.1968 23.451 90.5328 23.815 91.1908 23.815C91.3448 23.815 91.5128 23.801 91.6948 23.773V24.893C91.4148 24.963 91.1208 25.005 90.8268 25.005C89.5808 25.005 88.7968 24.347 88.7968 22.905V19.251H87.4248V18.131Z" fill="#0048FF"/>
<path d="M86.4287 16.941H84.8887V15.373H86.4287V16.941ZM84.9727 24.907V18.131H86.3587V24.907H84.9727Z" fill="#0048FF"/>
<path d="M75.2878 24.907L73.1318 18.131H74.6158L76.0018 22.989C76.0718 23.241 76.1278 23.437 76.1418 23.591C76.2118 23.381 76.2678 23.171 76.3098 22.989L77.6678 18.131H79.4458L80.8598 22.989C80.9578 23.395 80.9998 23.605 80.9998 23.605C80.9998 23.591 80.9998 23.591 80.9998 23.577C81.0278 23.437 81.0838 23.241 81.1538 22.975L82.5258 18.131H83.8978L81.7978 24.907H80.1178L78.7178 19.979C78.6478 19.713 78.5918 19.503 78.5638 19.349C78.5218 19.503 78.4658 19.713 78.3958 19.979L76.9818 24.907H75.2878Z" fill="#0048FF"/>
<path d="M62.9875 23.479C62.7215 22.933 62.5815 22.289 62.5815 21.533C62.5815 19.349 63.9115 17.907 65.7175 17.907C66.7395 17.907 67.4955 18.411 67.8735 19.069C67.8595 18.929 67.8455 18.733 67.8455 18.467V15.107H69.2455V24.907H67.8455V24.557C67.8455 24.291 67.8595 24.095 67.8735 23.969C67.5235 24.627 66.7115 25.131 65.6895 25.131C64.4995 25.131 63.5055 24.557 62.9875 23.479ZM64.5695 19.699C64.1915 20.161 64.0095 20.777 64.0095 21.519C64.0095 22.275 64.1915 22.877 64.5555 23.339C64.9195 23.801 65.3955 24.039 65.9835 24.039C66.5575 24.039 67.0195 23.801 67.3975 23.339C67.7615 22.877 67.9435 22.275 67.9435 21.519C67.9435 20.763 67.7615 20.161 67.3975 19.699C67.0335 19.237 66.5575 19.013 65.9835 19.013C65.4095 19.013 64.9335 19.237 64.5695 19.699Z" fill="#0048FF"/>
<path d="M59.7656 24.907V15.107H61.1516V24.907H59.7656Z" fill="#0048FF"/>
<path d="M57.9853 16.941H56.4453V15.373H57.9853V16.941ZM56.5293 24.907V18.131H57.9153V24.907H56.5293Z" fill="#0048FF"/>
<path d="M48.8345 22.443V18.131H50.2345V22.177C50.2345 23.409 50.7105 24.025 51.6625 24.025C52.6845 24.025 53.3005 23.269 53.3005 21.981V18.131H54.6725V24.907H53.3145V24.543C53.3145 24.277 53.3145 24.095 53.3285 23.969C52.9925 24.683 52.2365 25.131 51.2705 25.131C49.7585 25.131 48.8345 24.165 48.8345 22.443Z" fill="#0048FF"/>
<path d="M40 24.907V15.107H43.948C45.894 15.107 47.14 15.905 47.14 17.571C47.14 18.635 46.398 19.433 45.404 19.727C46.636 20.063 47.406 20.903 47.406 22.121C47.406 23.115 47.056 23.829 46.356 24.263C45.642 24.697 44.746 24.907 43.64 24.907H40ZM41.47 20.413V23.647H43.808C45.222 23.647 45.88 23.115 45.88 22.037C45.88 20.973 45.278 20.413 43.766 20.413H41.47ZM41.47 16.353V19.167H43.752C44.97 19.167 45.614 18.635 45.614 17.725C45.614 16.815 45.012 16.353 43.808 16.353H41.47Z" fill="#0048FF"/>
</svg>
