<svg width="162" height="48" viewBox="0 0 162 48" fill="none" xmlns="http://www.w3.org/2000/svg">
<rect width="162" height="48" rx="12" fill="#AFC1FD"/>
<rect x="0.5" y="0.5" width="161" height="47" rx="11.5" stroke="black" stroke-opacity="0.1"/>
<path d="M35.2103 19.0215C35.691 19.5022 36 20.1546 36 20.91V27.1245C36 27.8799 35.691 28.5323 35.2103 29.013L28.9957 35.2275C28.515 35.7426 27.8283 36.0172 27.1073 36.0172H20.8927C20.1373 36.0172 19.485 35.7426 18.97 35.2275L12.7554 29.013C12.2747 28.5323 12 27.8799 12 27.1245V20.91C12 20.1546 12.2747 19.5022 12.7554 18.9872L18.97 12.7726C19.485 12.2919 20.1373 11.9829 20.8927 11.9829H27.1073C27.8283 11.9829 28.515 12.2919 28.9957 12.8069L35.2103 19.0215ZM30.3075 27.6467V20.3878C30.3075 18.9114 29.1058 17.6754 27.6294 17.6754H20.3706C18.8598 17.6754 17.6581 18.9114 17.6581 20.3878V27.6467C17.6581 29.1231 18.8598 30.3248 20.3706 30.3248H27.6294C29.1058 30.3248 30.3075 29.1231 30.3075 27.6467Z" fill="#541500"/>
<path d="M49.68 31V17H55.76C58.4 17 60.2 18.28 60.2 20.68C60.2 22.52 58.88 23.7 57.58 24.08C59.04 24.34 59.94 25.48 59.94 27.3V31H57.72V27.68C57.72 25.74 56.98 25.1 55.1 25.1H51.9V31H49.68ZM55.28 23.2C57 23.2 57.92 22.44 57.92 21.02C57.92 19.6 57 18.86 55.28 18.86H51.9V23.2H55.28ZM65.5436 31.32C63.4436 31.32 62.0636 29.98 62.0636 27.46V21.3H64.1436V27.1C64.1436 28.7 64.7636 29.68 66.1436 29.68C67.5436 29.68 68.4236 28.62 68.4236 26.86V21.3H70.5036V31H68.4436V30.5C68.4436 30.22 68.4636 29.92 68.5036 29.66C68.0236 30.64 67.0036 31.32 65.5436 31.32ZM72.8378 31V21.3H74.8978V21.84C74.8978 22.1 74.8978 22.34 74.8578 22.64C75.3978 21.74 76.4378 20.98 77.8578 20.98C80.0378 20.98 81.3578 22.44 81.3578 24.88V31H79.2778V25.16C79.2778 23.54 78.6178 22.62 77.2978 22.62C75.8578 22.62 74.9178 23.8 74.9178 25.24V31H72.8378ZM87.6433 31V21.3H89.7233V31H87.6433ZM87.5433 19.64V17.34H89.8233V19.64H87.5433ZM92.0675 31V21.3H94.1275V21.84C94.1275 22.1 94.1275 22.34 94.0875 22.64C94.6275 21.74 95.6675 20.98 97.0875 20.98C99.2675 20.98 100.588 22.44 100.588 24.88V31H98.5075V25.16C98.5075 23.54 97.8475 22.62 96.5275 22.62C95.0875 22.62 94.1475 23.8 94.1475 25.24V31H92.0675ZM113.113 31.32C109.273 31.32 106.373 28.54 106.373 24C106.373 19.54 109.273 16.66 113.113 16.66C116.973 16.66 119.893 19.58 119.893 24C119.893 28.54 116.953 31.32 113.113 31.32ZM113.113 29.46C115.773 29.46 117.593 27.44 117.593 24C117.593 20.64 115.773 18.54 113.113 18.54C110.473 18.54 108.673 20.62 108.673 24C108.673 27.42 110.453 29.46 113.113 29.46ZM121.746 31V21.3H123.806V21.84C123.806 22.1 123.806 22.34 123.766 22.64C124.306 21.74 125.346 20.98 126.766 20.98C128.946 20.98 130.266 22.44 130.266 24.88V31H128.186V25.16C128.186 23.54 127.526 22.62 126.206 22.62C124.766 22.62 123.826 23.8 123.826 25.24V31H121.746ZM135.279 31.32C133.519 31.32 131.939 30.2 131.939 28.34C131.939 26.3 133.539 25.48 135.439 25.22L137.179 24.96C137.939 24.86 138.199 24.58 138.199 24.04C138.199 23.18 137.519 22.56 136.439 22.56C135.119 22.56 134.379 23.28 134.319 24.38H132.199C132.299 22.48 133.819 20.98 136.299 20.98C138.979 20.98 140.259 22.48 140.259 24.96V31H138.319V30.56C138.319 30.26 138.339 29.98 138.359 29.68C137.859 30.66 136.839 31.32 135.279 31.32ZM135.739 29.76C137.159 29.76 138.239 28.76 138.239 27.28V26.04C138.079 26.24 137.719 26.36 137.139 26.46L136.039 26.68C134.899 26.9 134.079 27.34 134.079 28.28C134.079 29.22 134.819 29.76 135.739 29.76Z" fill="#541500"/>
</svg>
