<svg xmlns="http://www.w3.org/2000/svg" width="150px" height="32px" viewBox="0 0 1500 320"><g fill="none" fill-rule="evenodd"><rect width="1500" height="320" fill="#1966D2" rx="40"/><text fill="#FFF" font-family="Arial,Helvetica,sans-serif" font-size="140" opacity=".704"><tspan x="850" y="210">in Gitpod</tspan></text><text fill="#FFF" font-family="Arial,Helvetica,sans-serif" font-size="140"><tspan x="350" y="210">Review</tspan></text><g fill="#FFF"><path d="M129.74 201.58v-81.01L112 110.33V211.77l87.77 50.66V241.7z"/><path d="M199.77 220.95V161l-52.03-30.04v60.19zM201.35 77.55l70.14 40.42 17.72-10.23L201.35 57l-87.86 50.73 17.78 10.26z"/><path d="M253.48 128.37l-52.12-30.04-52.09 30.05 52.08 30.07zM202.77 221.06l52.25-29.92v-20.48l-36.01 20.49v-20.71l54.01-30.74v61.88l-70.25 40.21v20.74l87.93-50.75V110.35l-87.93 50.75zM201.35 160.18v.01-.01z"/></g></g></svg>