<svg width="24" height="22" viewBox="0 0 24 22" fill="none" xmlns="http://www.w3.org/2000/svg">
<g style="mix-blend-mode:luminosity">
<path d="M0.778882 0.209506C0.66666 0.208059 0.555481 0.231194 0.453152 0.277287C0.350823 0.32338 0.259823 0.391314 0.186543 0.476319C0.113263 0.561324 0.0594782 0.66134 0.0289652 0.769343C-0.00154779 0.877347 -0.00804937 0.990721 0.00991697 1.10151L3.27417 20.9177C3.31484 21.1602 3.43966 21.3806 3.62669 21.5402C3.81373 21.6999 4.05102 21.7885 4.2969 21.7905H19.9569C20.1412 21.7929 20.3202 21.729 20.4614 21.6104C20.6025 21.4918 20.6964 21.3265 20.7258 21.1446L23.9901 1.10535C24.008 0.994566 24.0015 0.881192 23.971 0.773188C23.9405 0.665185 23.8867 0.565169 23.8135 0.480164C23.7402 0.395159 23.6492 0.327225 23.5468 0.281132C23.4445 0.235039 23.3333 0.211903 23.2211 0.213351L0.778882 0.209506ZM14.5241 14.5315H9.52586L8.17248 7.46084H15.7352L14.5241 14.5315Z" fill="#2684FF"/>
<path d="M22.952 7.46085H15.7352L14.5241 14.5315H9.52583L3.62402 21.5367C3.81108 21.6985 4.04958 21.7884 4.29687 21.7905H19.9607C20.145 21.7929 20.324 21.729 20.4652 21.6104C20.6063 21.4918 20.7002 21.3265 20.7296 21.1446L22.952 7.46085Z" fill="url(#paint0_linear)"/>
</g>
<defs>
<linearGradient id="paint0_linear" x1="24.6206" y1="9.44093" x2="12.694" y2="18.7492" gradientUnits="userSpaceOnUse">
<stop offset="0.18" stop-color="#0052CC"/>
<stop offset="1" stop-color="#2684FF"/>
</linearGradient>
</defs>
</svg>
