<svg xmlns="http://www.w3.org/2000/svg" fill="#fff" viewBox="0 0 1000 713.804"><path d="M361.986.001C348.73.055 239.075 3.167 123.393 89.125 123.393 89.125 0 311.063 0 584.414c0 0 71.978 123.392 261.353 129.39 0 0 31.705-37.704 57.412-70.266-108.826-32.562-149.957-100.254-149.957-100.254s8.57 5.997 23.995 14.566c.857 0 1.711.855 3.425 1.712 2.57 1.714 5.142 2.571 7.713 4.285 21.422 11.997 42.844 21.424 62.553 29.136 35.132 14.567 77.122 27.42 125.965 36.845 64.267 11.997 139.673 16.28 221.935.856 40.275-7.712 81.408-18.85 124.253-36.845 29.992-11.14 63.41-27.42 98.542-50.555 0 0-42.844 69.408-155.098 101.114 25.707 31.705 56.556 68.55 56.556 68.55C928.022 706.949 1000 583.557 1000 584.414c0-273.351-123.393-495.29-123.393-495.29C754.07-2.562 636.673.009 636.673.009l-11.994 13.71c145.673 43.702 213.366 107.97 213.366 107.97-89.117-47.986-176.519-71.98-257.924-81.406-61.697-6.855-120.825-5.14-173.096 1.716-5.141 0-9.425.855-14.566 1.712-29.991 3.428-102.827 13.71-194.515 53.984-31.706 13.71-50.56 23.995-50.56 23.995s70.267-67.697 224.508-111.4L363.323.009s-.454-.01-1.337-.007zm-21.798 316.203c48.843 0 88.26 41.987 87.404 94.258 0 52.27-38.561 94.26-87.404 94.26-47.987 0-87.404-41.99-87.404-94.26 0-52.271 38.56-94.258 87.404-94.258zm312.768 0c47.986 0 87.404 41.987 87.404 94.258 0 52.27-38.561 94.26-87.404 94.26-47.987 0-87.405-41.99-87.405-94.26 0-52.271 38.561-94.258 87.405-94.258z"/></svg>