<svg xmlns="http://www.w3.org/2000/svg" id="logo-final" viewBox="0 0 632.19 206.35"><defs><style>.cls-1{fill:#0087be}.cls-2{fill:#1aa6e4}.cls-3{fill:#0092cf}.cls-5{fill:#dedede}</style></defs><path d="M89.35 185.6l-71.61-41.02V61.87l.03-.02L0 51.6v103.17l89.35 51.58V185.6z" class="cls-1"/><path d="M89.35 103.18L35.77 72.25l-.03.02v61.88l53.61 30.71v-61.68z" class="cls-1"/><path d="M178.71 51.61L89.35 0 0 51.59v.01l17.77 10.25 71.58-41.3 71.63 41.28 17.72-10.22v.01h.01v-.01z" class="cls-2"/><path d="M142.97 72.23l-53.61-30.9-53.59 30.92 53.58 30.93 53.62-30.95z" class="cls-2"/><path d="M89.35 103.18v.01-.01zM89.35 103.18l53.63-30.95h-.01l-53.62 30.95zM160.98 61.83l.01.01 17.71-10.22v-.01l-17.72 10.22z" class="cls-3"/><path fill="#e8bfd8" d="M142.98 72.23l18.01-10.39-.01-.01-18.01 10.4h.01z"/><path d="M178.7 51.62l-17.71 10.22-18.01 10.39-53.63 30.95v9.23h-.01v24.5h.01v27.95l53.67-30.72v-20.48l-36.01 20.49v-20.71l54.01-30.74v61.88L89.35 185.6v20.75l89.35-51.57V51.62z" class="cls-3"/><path d="M298.82 135.12c-6.25 6.51-15.89 10.1-27.17 10.1-21.53 0-37.77-16.91-37.79-39.38 0-22.92 16.07-39.56 38.24-39.58a45.9 45.9 0 0128.19 9.67l1 .76v-8.28l-.23-.19c-7.9-6.07-18.08-9.28-29.43-9.27-25.92 0-45.45 20.12-45.43 46.77s19.58 46.72 45.49 46.7c13.87 0 26.15-5.07 34.59-14.24l.16-.17V98.55h-7.64zM329.54 88.72h7.45v62.12h-7.45zM333.16 62.21a5.7 5.7 0 105.7 5.7 5.71 5.71 0 00-5.7-5.7zM375.31 69.19h-7.44V88.7h-15.41v6.81h15.42v38.53c0 11.81 5.89 18.31 16.55 18.3 4.67 0 9.8-1.23 12.19-2.92l.26-.18v-7.34l-.89.51a20.08 20.08 0 01-9.9 2.73c-7.93 0-10.74-3.34-10.75-12.77V95.5h22.43v-6.83h-22.43zM446 87.11c-10 0-18.57 3.89-24.37 11v-9.45h-7.44l.06 87.61h7.45v-35c5.86 7.16 14.45 11.07 24.39 11.06 18 0 31.56-14 31.54-32.62S464 87.1 446 87.11zm24 32.57c0 14.62-10.85 25.66-25.25 25.67a25.88 25.88 0 01-23.12-14.55v-22.29a25.68 25.68 0 0123.07-14.46c14.41-.05 25.3 11.01 25.3 25.63zM523.08 87.05c-18.8 0-33 14.09-33 32.74s14.2 32.46 33 32.44 33.09-14 33.08-32.48c.03-18.66-14.16-32.75-33.08-32.7zm0 6.94c14.55 0 25.53 11.06 25.54 25.76a25.46 25.46 0 11-50.92 0c0-14.66 10.91-25.75 25.39-25.75zM624.68 60.21v37.84C618.85 90.9 610.26 87 600.32 87c-18 0-31.56 14.09-31.55 32.75 0 18.5 13.6 32.45 31.6 32.43 10 0 18.57-3.88 24.37-11v9.42h7.44l-.06-90.41zm0 48.28v22.28a26 26 0 01-23.09 14.47c-14.41 0-25.28-11-25.29-25.51 0-14.7 10.85-25.79 25.25-25.8a26.34 26.34 0 0123.17 14.56z" class="cls-5"/></svg>