<svg xmlns="http://www.w3.org/2000/svg" id="logo-final" viewBox="0 0 186.35 206.35"><defs><style>.cls-1{fill:#0087be}.cls-2{fill:#1aa6e4}.cls-3{fill:#0092cf}</style></defs><path d="M89.35 185.6l-71.61-41.02V61.87l.03-.02L0 51.6v103.17l89.35 51.58V185.6z" class="cls-1"/><path d="M89.35 103.18L35.77 72.25l-.03.02v61.88l53.61 30.71v-61.68z" class="cls-1"/><path d="M178.71 51.61L89.35 0 0 51.59v.01l17.77 10.25 71.58-41.3 71.63 41.28 17.72-10.22v.01h.01v-.01z" class="cls-2"/><path d="M142.97 72.23l-53.61-30.9-53.59 30.92 53.58 30.93 53.62-30.95z" class="cls-2"/><path d="M89.35 103.18v.01-.01zM89.35 103.18l53.63-30.95h-.01l-53.62 30.95zM160.98 61.83l.01.01 17.71-10.22v-.01l-17.72 10.22z" class="cls-3"/><path fill="#e8bfd8" d="M142.98 72.23l18.01-10.39-.01-.01-18.01 10.4h.01z"/><path d="M178.7 51.62l-17.71 10.22-18.01 10.39-53.63 30.95v9.23h-.01v24.5h.01v27.95l53.67-30.72v-20.48l-36.01 20.49v-20.71l54.01-30.74v61.88L89.35 185.6v20.75l89.35-51.57V51.62z" class="cls-3"/></svg>