<svg xmlns="http://www.w3.org/2000/svg" width="206.35" height="206.35"><defs><style>.cls-1{fill:#0087be}.cls-2{fill:#1aa6e4}.cls-3{fill:#0092cf}</style></defs><path fill="#0087be" d="M31.74 61.87l.03-.02L14 51.6v103.17l89.35 51.58V185.6l-71.61-41.02z" class="cls-1"/><path fill="#0087be" d="M103.35 103.19v-.01L49.77 72.25l-.03.02v61.88l53.61 30.71z" class="cls-1"/><path fill="#1aa6e4" d="M14 51.6l17.77 10.25 71.58-41.3 71.63 41.28 17.72-10.22v.01h.01v-.01L103.35 0 14 51.59z" class="cls-2"/><path fill="#1aa6e4" d="M103.35 103.18l53.62-30.95-53.61-30.9-53.59 30.92z" class="cls-2"/><path fill="#0092cf" d="M103.35 103.18v.01zM156.97 72.23l-53.62 30.95 53.63-30.95zM192.7 51.61l-17.72 10.22.01.01 17.71-10.22z" class="cls-3"/><path fill="#e8bfd8" d="M156.97 72.23h.01l18.01-10.39-.01-.01z"/><path fill="#0092cf" d="M192.7 154.77V51.62l-17.71 10.22-18.01 10.39-53.63 30.95v9.23h-.01v24.5h.01v27.95l53.67-30.72v-20.48l-36.01 20.49v-20.71l54.01-30.74v61.88l-71.67 41.02v20.75l89.35-51.57z" class="cls-3"/></svg>