<svg xmlns="http://www.w3.org/2000/svg" fill="none" stroke="#1aa6e4" filter="drop-shadow(0 0 1px #1aa6e4)" viewBox="0 0 100 100"><path d="M86.7 61.1l6.3-6.3c10.8-10.8 5.5-25.4-3.2-34.7-2.9-3.1-6.1-5.8-9.5-7.7C75.9 9.9 62 6.3 53 15.1L34.1 33.9c-5.1 5.1 7.7 9.9 14.2 3.5l4.7-4.7c7-6.3 15.8 6.4 26.7-2.3"/><path d="M13.5 58.1l-6.3-6.2C-13.6 31 22.5-4.7 43.7 15.9l4.2 4.2M63 37.3l24.2 25.4c4.9 5.2-2.4 15-8.7 8.5L67.1 59.5"/><path d="M57.3 67.4l12.5 12.8c5 5.1 15.1-2.5 8.8-9L66.3 58.6M53.5 81.5l6.2 6.3c5 5.1 14.8-2.2 8.5-8.8"/><path d="M28.4 53l.7.7c2.2 2.2 2.2 5.9 0 8.2l-8.6 8.6c-2.2 2.2-5.9 2.2-8.2 0l-.7-.7c-2.2-2.2-2.3-5.9 0-8.2l8.6-8.6c2.2-2.3 5.9-2.3 8.2 0h0zm14.5 3.9l.7.7c2.3 2.3 2.2 5.9 0 8.2L29.8 79.5c-2.2 2.2-5.9 2.2-8.2 0l-.6-.7c-2.2-2.2-2.3-5.9 0-8.2l13.7-13.7c2.2-2.2 5.9-2.2 8.2 0h0zm5.6 12.8l.7.7c2.3 2.3 2.2 5.9 0 8.2L39.7 88c-2.2 2.2-5.9 2.2-8.2 0l-.7-.7c-2.2-2.2-2.3-5.9 0-8.2l9.4-9.4c2.3-2.2 6-2.2 8.3 0h0zm6 12.3l.7.7c2.2 2.2 2.2 5.9 0 8.2l-5.8 5.8c-2.2 2.2-5.9 2.2-8.2 0l-.6-.7c-2.2-2.2-2.3-5.9 0-8.2l5.8-5.8c2.2-2.3 5.9-2.3 8.1 0h0z"/></svg>