<svg xmlns="http://www.w3.org/2000/svg" fill="none" stroke="#1aa6e4" filter="drop-shadow(0 0 1px #1aa6e4)" viewBox="0 0 100 100"><path d="M33.7 74.8c-1.1-16.4-13.8-8.1-15.2-30.4-.9-14.1 12.2-25.5 27.2-25.5s28.2 11.5 27.2 25.5c-1.4 19-10.8 15.2-14.3 25.1M34.1 94.4L58.6 88M34.1 85.1l24.5-6.4M34.1 75.9l24.5-6.4M54.4 91.4c0 4.2-3.9 7.6-8.7 7.6-3 0-5.7-1.4-7.3-3.4M46.4 1v8.2M76.3 12.4l-5.8 5.8M89.9 44.4h-8.3M75.1 75.1l-5.8-5.8M16.1 12.4l5.8 5.8M1.3 42.7h8.3M14.9 75.1l5.8-5.8"/><path d="M35.8 48.7L44.7 61l13.5-23.7"/></svg>