<svg version="1.1" id="logo" xmlns="http://www.w3.org/2000/svg" xmlns:xlink="http://www.w3.org/1999/xlink" x="0px" y="0px" height="80.1px" width="639.2px" viewBox="403 0 239.2 80.1">
	<path id="Leap_x5F_A" fill="#008cd7" d="M562.9,54.5c-1.9,1.7-4.3,2.6-7.1,2.6h-20.1c-2.7,0-5.1-0.9-7-2.6c-1.9-1.7-2.9-3.9-2.9-6.6 v-1.6c0-2.6,1-4.7,3-6.5c2-1.8,4.3-2.7,6.9-2.7h12.8v6.1h-12.8c-0.9,0-1.6,0.3-2.4,0.9c-0.8,0.6-1.1,1.3-1.1,2.2v1.6 c0,2,1.2,3,3.5,3h20.1c2.4,0,3.6-1,3.6-3V32.2c0-0.8-0.4-1.5-1.1-2.2c-0.8-0.6-1.6-0.9-2.5-0.9h-29.4v-6.1h29.4 c2.6,0,4.9,0.9,6.9,2.7c2,1.8,3,4,3,6.5v15.7C565.7,50.6,564.8,52.8,562.9,54.5z"></path>
	<path id="Leap_x5F_E" fill="#008cd7" d="M515.5,40.4c-2,1.8-4.3,2.7-6.9,2.7h-12.9v-6.1h12.9c0.8,0,1.6-0.3,2.3-0.9 c0.8-0.6,1.2-1.3,1.2-2.2v-1.6c0-2-1.2-3.1-3.5-3.1h-20.1c-2.3,0-3.5,1.1-3.5,3.1v15.6c0,0.9,0.4,1.6,1.1,2.2 c0.8,0.6,1.5,0.9,2.4,0.9H518V57h-29.5c-2.6,0-4.8-0.9-6.9-2.6c-2-1.8-3-4-3-6.5V32.2c0-2.7,1-4.9,2.9-6.6c1.9-1.7,4.3-2.6,7-2.6 h20.1c2.7,0,5.1,0.9,7,2.5c1.9,1.7,2.9,3.9,2.9,6.7v1.6C518.6,36.4,517.6,38.6,515.5,40.4z"></path>
	<path id="Leap_x5F_P" fill="#008cd7" d="M612.2,25.6c-1.9-1.6-4.3-2.5-7-2.5h-20.1c-2.7,0-5.1,0.9-7,2.6c-1.9,1.7-2.9,3.9-2.9,6.6v24.9 h6.4V32.2c0-2,1.2-3.1,3.5-3.1h20.1c2.3,0,3.5,1.1,3.5,3.1v3c0,0.8-0.4,1.5-1.2,2.2c-0.8,0.6-1.5,0.9-2.3,0.9h-17.1v6.1h17.1 c2.6,0,4.8-0.9,6.9-2.7c2-1.8,3-4,3-6.5v-3C615.1,29.5,614.1,27.3,612.2,25.6z"></path>
	<path id="Leap_x5F_L" fill="#008cd7" d="M437.4,23H431c0,0,0,6.7,0,9.3v15.7c0,2.7,0.9,4.9,2.8,6.6c1.9,1.7,4.3,2.6,7,2.6h31.3V51 l-31.3,0c-2.3,0-3.5-1-3.5-3L437.4,23z"></path>
	<path id="Pill" fill="#008cd7" d="M615.7,80.1H428.4c-13,0-23.5-10.5-23.5-23.5V23.5c0-13,10.5-23.5,23.5-23.5h187.4 c13,0,23.5,10.5,23.5,23.5v33.1C639.2,69.5,628.7,80.1,615.7,80.1z M428.4,7c-9.1,0-16.5,7.4-16.5,16.5v33.1 c0,9.1,7.4,16.5,16.5,16.5h187.4c9.1,0,16.5-7.4,16.5-16.5V23.5c0-9.1-7.4-16.5-16.5-16.5H428.4z"></path>
</svg>
