<svg xmlns="http://www.w3.org/2000/svg" fill="#fff" viewBox="0 0 54 54"><path fill="none" d="M-.2.1h53.8v53.4H-.2z"/><path d="M18.3 13v32.7c0 .5-.1.9-.3 1.2-.2.3-.6.5-1 .5-.3 0-.6-.1-.9-.2L3 40.7c-.4-.2-.7-.5-1-.9-.3-.4-.4-.9-.4-1.3V6.6c0-.4.1-.7.3-.9.2-.3.5-.4.8-.4.3 0 .7.1 1.3.4l14.3 7.1v.2zm1.8 2.8L35 40l-14.9-7.4V15.8zM51.6 13c0 .1-2.4 4-7.2 11.7-4.8 7.7-7.6 12.3-8.4 13.6L25.1 20.6l9-14.7c.3-.5.8-.8 1.5-.8.3 0 .5.1.7.2l15.1 7.5c.1 0 .2.1.2.2zm0 3.3v29.4c0 .5-.1.8-.4 1.1-.3.3-.6.4-1.1.4-.4 0-.9-.1-1.3-.4l-12.3-6.1 15.1-24.4z"/></svg>