<svg xmlns="http://www.w3.org/2000/svg" viewBox="0 0 80.348 97.464"><g data-name="Gruppe 666"><path d="M53.216 67.013l-3.762 1.675 2.255 5.065c.006.013.018.02.023.032l5.39 12.077 6.684 9.902a1.18 1.18 0 001.457.418 1.18 1.18 0 00.66-1.366L62.936 83.05l-7.568-16.994z" data-name="Pfad 1092"/><path d="M79.616 53.944a11.906 11.906 0 00-2.751-3.849 12.106 12.106 0 00-3.91-2.421 12.677 12.677 0 00-3.577-.76 11.018 11.018 0 00-2.218.123c-.392.048-.784.098-1.172.114a17.309 17.309 0 01-8.516-1.574 3.165 3.165 0 01-1.442-1.967l-.24-.561-9.646-21.641a4.111 4.111 0 01.103-.642 10.161 10.161 0 01.292-1.225 9.646 9.646 0 011.012-2.246 11.09 11.09 0 011.164-1.55 6.32 6.32 0 01.967-.826l.304-.233a5.403 5.403 0 001.484-1.756 5.755 5.755 0 00.644-2.995 5.618 5.618 0 00-.479-1.964A5.695 5.695 0 0044.13 5.1L11.441 19.656a5.671 5.671 0 002.457 10.856 5.534 5.534 0 001.217-.169 6.44 6.44 0 012.29-.04 9.876 9.876 0 012.291.55 10.915 10.915 0 011.708.827 3.872 3.872 0 01.639.404l.88 1.976 9.207 20.678a2.15 2.15 0 01.35 1.349 16.362 16.362 0 01-5.035 8.466 12.438 12.438 0 00-3.669 5.029 12.006 12.006 0 00.258 9.117c.093.21.213.434.334.646a.13.13 0 00.008.017c.005.01.014.017.02.028.027.047.045.101.074.144.01.023.043.023.059.043a1.164 1.164 0 00.568.418c.03.01.056.008.087.015a1.156 1.156 0 00.745-.049l53.358-23.76a1.153 1.153 0 00.535-.52c.015-.028.034-.047.047-.075a1.15 1.15 0 00.07-.702c-.006-.026.013-.048.006-.073-.012-.05-.044-.098-.056-.152-.005-.01-.003-.023-.008-.033l-.007-.017a7.77 7.77 0 00-.258-.685z" data-name="Pfad 1093"/></g></svg>