<svg xmlns="http://www.w3.org/2000/svg" fill="#fff" aria-labelledby="simpleicons-reddit-icon" viewBox="0 0 24 24"><path d="M2.204 14.049c-.06.276-.091.56-.091.847 0 3.443 4.402 6.249 9.814 6.249 5.41 0 9.812-2.804 9.812-6.249 0-.274-.029-.546-.082-.809l-.015-.032a.456.456 0 01-.029-.165c-.302-1.175-1.117-2.241-2.296-3.103a.422.422 0 01-.126-.07c-.026-.02-.045-.042-.067-.064-1.792-1.234-4.356-2.008-7.196-2.008-2.815 0-5.354.759-7.146 1.971a.397.397 0 01-.179.124c-1.206.862-2.042 1.937-2.354 3.123a.454.454 0 01-.037.171l-.008.015zm9.773 5.441c-1.794 0-3.057-.389-3.863-1.197a.45.45 0 010-.632.47.47 0 01.635 0c.63.629 1.685.943 3.228.943 1.542 0 2.591-.3 3.219-.929a.463.463 0 01.629 0 .482.482 0 010 .645c-.809.808-2.065 1.198-3.862 1.198l.014-.028zm-3.606-7.573c-.914 0-1.677.765-1.677 1.677 0 .91.763 1.65 1.677 1.65s1.651-.74 1.651-1.65c0-.912-.739-1.677-1.651-1.677zm7.233 0c-.914 0-1.678.765-1.678 1.677 0 .91.764 1.65 1.678 1.65s1.651-.74 1.651-1.65c0-.912-.739-1.677-1.651-1.677zm4.548-1.595c1.037.833 1.8 1.821 2.189 2.904a1.818 1.818 0 00-2.189-2.902v-.002zM2.711 9.963a1.82 1.82 0 00-1.173 3.207c.401-1.079 1.172-2.053 2.213-2.876a1.82 1.82 0 00-1.039-.329v-.002zm9.217 12.079c-5.906 0-10.709-3.205-10.709-7.142 0-.275.023-.544.068-.809A2.723 2.723 0 010 11.777a2.725 2.725 0 012.725-2.713 2.7 2.7 0 011.797.682c1.856-1.191 4.357-1.941 7.112-1.992l1.812-5.524.404.095s.016 0 .016.002l4.223.993a2.237 2.237 0 014.296.874c0 1.232-1.003 2.234-2.231 2.234s-2.23-1.004-2.23-2.23l-3.851-.912-1.467 4.477c2.65.105 5.047.854 6.844 2.021a2.663 2.663 0 011.833-.719 2.716 2.716 0 012.718 2.711c0 .987-.54 1.886-1.378 2.365.029.255.059.494.059.749-.015 3.938-4.806 7.143-10.72 7.143l-.034.009zm8.179-19.187a1.339 1.339 0 100 2.678c.732 0 1.33-.6 1.33-1.334 0-.733-.598-1.332-1.347-1.332l.017-.012z"/></svg>