<svg xmlns="http://www.w3.org/2000/svg" fill="none" stroke="#1aa6e4" filter="drop-shadow(0 0 1px #1aa6e4)" viewBox="0 0 100 100"><path d="M44.1 74.8l-2.5 9.6c-.5 1.7-3.3 1.3-4.6.1L16 64.4c-1.3-1.2-1.8-4.2-.1-4.6l9.3-3.1m10.3 8.8l-.2-.2-12.7-12.2c9.5-13.3 20.3-31.2 31.3-42.7C63.5.2 79.1-1.5 93.7 4.4l.1.1c6.7 14.5 5.4 30.2-4.2 40.2-11 11.5-28.4 23-41.4 33.1L35.5 65.5h0zm32-63.2C75.6 0 84.8.8 93.7 4.4l.1.1c4.1 8.8 5.2 18.1 3.3 26.2L67.5 2.3h0zm3.7 25.8c3.2 3 3.3 8 .2 11.2-3 3.2-8 3.3-11.2.2-3.2-3-3.3-8-.2-11.2 3-3.1 8-3.2 11.2-.2h0zM56.3 43.6c3.2 3 3.3 8 .2 11.2-3 3.2-8 3.3-11.2.2-3.2-3-3.3-8-.2-11.2 3-3.1 8-3.2 11.2-.2h0zM22.7 53l17.7-25.8c-5.7-1.1-11.7-3.7-17.2-3.3C6 25.1 3.1 40.2 1.5 54.5L22.7 53h0zm25.6 24.6l25-18.8c1.3 5.7 4.2 11.5 4 17-.4 17.2-15.3 20.8-29.5 23l.5-21.2h0zM27.1 46.2L55 72.7"/></svg>