<svg width="24" height="24" fill="none" xmlns="http://www.w3.org/2000/svg">
    <path
            fill-rule="evenodd"
            clip-rule="evenodd"
            d="M14.061 1.196a2.37 2.37 0 0 1-.884 3.235l-7.078 4.04a.6.6 0 0 0-.302.521v6.342a.6.6 0 0 0 .302.521l5.603 3.198a.6.6 0 0 0 .595 0l5.603-3.198a.6.6 0 0 0 .302-.521v-3.944l-5.036 2.839a2.375 2.375 0 0 1-3.234-.9 2.37 2.37 0 0 1 .901-3.231l7.205-4.061c2.196-1.238 4.911.347 4.911 2.865v6.915a4.512 4.512 0 0 1-2.276 3.918l-6.432 3.671a4.523 4.523 0 0 1-4.484 0l-6.432-3.671A4.512 4.512 0 0 1 1.05 15.815v-7.305a4.512 4.512 0 0 1 2.276-3.919L10.823.313a2.375 2.375 0 0 1 3.238.883z"
            fill="#6E7681"
    />
</svg>