<svg width="138" height="122" viewBox="0 0 138 122" fill="none" xmlns="http://www.w3.org/2000/svg">
    <g opacity="0.35" filter="url(#filter0_dd)">
        <path opacity="0.35"
            d="M79 15H24C21.7909 15 20 16.7909 20 19V69C20 71.2091 21.7909 73 24 73H79C81.2091 73 83 71.2091 83 69V19C83 16.7909 81.2091 15 79 15Z"
            fill="#F3F1F0" />
        <path opacity="0.35" d="M20 19C20 16.791 21.791 15 24 15H79C81.209 15 83 16.791 83 19V25H20V19Z"
            fill="#DADADA" />
        <path opacity="0.35"
            d="M27 22C28.1046 22 29 21.1046 29 20C29 18.8954 28.1046 18 27 18C25.8954 18 25 18.8954 25 20C25 21.1046 25.8954 22 27 22Z"
            fill="#C4C4C4" />
        <path opacity="0.35" d="M48 32H27V36H48V32Z" fill="#DADADA" />
        <path opacity="0.35" d="M70 42H33V46H70V42Z" fill="#DADADA" />
        <path opacity="0.35" d="M70 52H33V56H70V52Z" fill="#DADADA" />
        <path opacity="0.35" d="M83 65H20V73H83V65Z" fill="#FAB15A" />
    </g>
    <g opacity="0.5" filter="url(#filter1_dd)">
        <path opacity="0.5"
            d="M114 39H59C56.7909 39 55 40.7909 55 43V93C55 95.2091 56.7909 97 59 97H114C116.209 97 118 95.2091 118 93V43C118 40.7909 116.209 39 114 39Z"
            fill="#F3F1F0" />
        <path opacity="0.5" d="M55 43C55 40.791 56.791 39 59 39H114C116.209 39 118 40.791 118 43V49H55V43Z"
            fill="#DADADA" />
        <path opacity="0.5"
            d="M62 46C63.1046 46 64 45.1046 64 44C64 42.8954 63.1046 42 62 42C60.8954 42 60 42.8954 60 44C60 45.1046 60.8954 46 62 46Z"
            fill="#C4C4C4" />
        <path opacity="0.5" d="M83 56H62V60H83V56Z" fill="#DADADA" />
        <path opacity="0.5" d="M105 66H68V70H105V66Z" fill="#DADADA" />
        <path opacity="0.5" d="M105 76H68V80H105V76Z" fill="#DADADA" />
        <path opacity="0.5" d="M118 89H55V97H118V89Z" fill="#FFB45B" />
    </g>
    <g filter="url(#filter2_dd)">
        <path
            d="M98 25H43C40.7909 25 39 26.7909 39 29V79C39 81.2091 40.7909 83 43 83H98C100.209 83 102 81.2091 102 79V29C102 26.7909 100.209 25 98 25Z"
            fill="#F3F1F0" />
        <path d="M39 29C39 26.791 40.791 25 43 25H98C100.209 25 102 26.791 102 29V35H39V29Z" fill="#DADADA" />
        <path
            d="M46 32C47.1046 32 48 31.1046 48 30C48 28.8954 47.1046 28 46 28C44.8954 28 44 28.8954 44 30C44 31.1046 44.8954 32 46 32Z"
            fill="#C4C4C4" />
        <path d="M67 42H46V46H67V42Z" fill="#DADADA" />
        <path d="M89 52H52V56H89V52Z" fill="#DADADA" />
        <path d="M89 62H52V66H89V62Z" fill="#DADADA" />
        <path d="M102 75H39V83H102V75Z" fill="#FFB45B" />
    </g>
    <defs>
        <filter id="filter0_dd" x="0" y="0" width="103" height="98" filterUnits="userSpaceOnUse"
            color-interpolation-filters="sRGB">
            <feFlood flood-opacity="0" result="BackgroundImageFix" />
            <feColorMatrix in="SourceAlpha" type="matrix" values="0 0 0 0 0 0 0 0 0 0 0 0 0 0 0 0 0 0 127 0" />
            <feOffset dy="5" />
            <feGaussianBlur stdDeviation="10" />
            <feColorMatrix type="matrix" values="0 0 0 0 0 0 0 0 0 0 0 0 0 0 0 0 0 0 0.12 0" />
            <feBlend mode="normal" in2="BackgroundImageFix" result="effect1_dropShadow" />
            <feColorMatrix in="SourceAlpha" type="matrix" values="0 0 0 0 0 0 0 0 0 0 0 0 0 0 0 0 0 0 127 0" />
            <feOffset dy="2" />
            <feGaussianBlur stdDeviation="2.5" />
            <feColorMatrix type="matrix" values="0 0 0 0 0 0 0 0 0 0 0 0 0 0 0 0 0 0 0.08 0" />
            <feBlend mode="normal" in2="effect1_dropShadow" result="effect2_dropShadow" />
            <feBlend mode="normal" in="SourceGraphic" in2="effect2_dropShadow" result="shape" />
        </filter>
        <filter id="filter1_dd" x="35" y="24" width="103" height="98" filterUnits="userSpaceOnUse"
            color-interpolation-filters="sRGB">
            <feFlood flood-opacity="0" result="BackgroundImageFix" />
            <feColorMatrix in="SourceAlpha" type="matrix" values="0 0 0 0 0 0 0 0 0 0 0 0 0 0 0 0 0 0 127 0" />
            <feOffset dy="5" />
            <feGaussianBlur stdDeviation="10" />
            <feColorMatrix type="matrix" values="0 0 0 0 0 0 0 0 0 0 0 0 0 0 0 0 0 0 0.12 0" />
            <feBlend mode="normal" in2="BackgroundImageFix" result="effect1_dropShadow" />
            <feColorMatrix in="SourceAlpha" type="matrix" values="0 0 0 0 0 0 0 0 0 0 0 0 0 0 0 0 0 0 127 0" />
            <feOffset dy="2" />
            <feGaussianBlur stdDeviation="2.5" />
            <feColorMatrix type="matrix" values="0 0 0 0 0 0 0 0 0 0 0 0 0 0 0 0 0 0 0.08 0" />
            <feBlend mode="normal" in2="effect1_dropShadow" result="effect2_dropShadow" />
            <feBlend mode="normal" in="SourceGraphic" in2="effect2_dropShadow" result="shape" />
        </filter>
        <filter id="filter2_dd" x="19" y="10" width="103" height="98" filterUnits="userSpaceOnUse"
            color-interpolation-filters="sRGB">
            <feFlood flood-opacity="0" result="BackgroundImageFix" />
            <feColorMatrix in="SourceAlpha" type="matrix" values="0 0 0 0 0 0 0 0 0 0 0 0 0 0 0 0 0 0 127 0" />
            <feOffset dy="5" />
            <feGaussianBlur stdDeviation="10" />
            <feColorMatrix type="matrix" values="0 0 0 0 0 0 0 0 0 0 0 0 0 0 0 0 0 0 0.12 0" />
            <feBlend mode="normal" in2="BackgroundImageFix" result="effect1_dropShadow" />
            <feColorMatrix in="SourceAlpha" type="matrix" values="0 0 0 0 0 0 0 0 0 0 0 0 0 0 0 0 0 0 127 0" />
            <feOffset dy="2" />
            <feGaussianBlur stdDeviation="2.5" />
            <feColorMatrix type="matrix" values="0 0 0 0 0 0 0 0 0 0 0 0 0 0 0 0 0 0 0.08 0" />
            <feBlend mode="normal" in2="effect1_dropShadow" result="effect2_dropShadow" />
            <feBlend mode="normal" in="SourceGraphic" in2="effect2_dropShadow" result="shape" />
        </filter>
    </defs>
</svg>