<svg width="90" height="100" fill="none" xmlns="http://www.w3.org/2000/svg"><path fill-rule="evenodd" clip-rule="evenodd" d="M53.47 4.98c2.673 4.738 1.048 10.773-3.63 13.48L20.754 35.294a2.506 2.506 0 00-1.244 2.171v26.426c0 .897.475 1.726 1.244 2.17l23.024 13.326a2.437 2.437 0 002.444 0l23.024-13.325a2.506 2.506 0 001.244-2.171V47.456L49.794 59.283c-4.692 2.681-10.643 1.003-13.29-3.75-2.648-4.752-.99-10.779 3.702-13.46L69.82 25.15C78.84 19.996 90 26.597 90 37.086v28.811c0 6.748-3.57 12.979-9.355 16.327L54.212 97.522a18.362 18.362 0 01-18.424 0L9.355 82.224C3.57 78.876 0 72.645 0 65.897V35.46C0 28.71 3.57 22.48 9.355 19.132L40.16 1.303C44.838-1.404 50.797.243 53.47 4.98z" fill="url(#paint0_linear)"/><defs><linearGradient id="paint0_linear" x1="67.739" y1="15.122" x2="20.702" y2="88.135" gradientUnits="userSpaceOnUse"><stop stop-color="#FFB45B"/><stop offset="1" stop-color="#FF8A00"/></linearGradient></defs></svg>