<svg width="24" height="24" viewBox="0 0 24 24" fill="none" xmlns="http://www.w3.org/2000/svg">
<g style="mix-blend-mode:luminosity">
<path d="M24 12C24 18.6273 18.6273 24 12 24C5.37267 24 0 18.6273 0 12C0 5.37267 5.37267 0 12 0C18.6273 0 24 5.37267 24 12Z" fill="#FFCC4D"/>
<path d="M14.6668 18C14.6668 19.842 13.4728 20 12.0001 20C10.5268 20 9.33347 19.842 9.33347 18C9.33347 16.1593 10.5268 14 12.0001 14C13.4728 14 14.6668 16.1593 14.6668 18ZM20.0001 9.99999C19.9154 10.0001 19.8314 9.98378 19.7528 9.95199C16.2668 8.55799 14.8381 6.45799 14.7788 6.36933C14.6804 6.2224 14.6444 6.0424 14.6787 5.86893C14.713 5.69546 14.8149 5.54272 14.9618 5.44433C15.1087 5.34593 15.2887 5.30993 15.4622 5.34425C15.6357 5.37857 15.7884 5.4804 15.8868 5.62733C15.8995 5.64533 17.1735 7.48399 20.2475 8.71333C20.392 8.77043 20.512 8.87621 20.5868 9.01239C20.6616 9.14857 20.6864 9.3066 20.6571 9.45918C20.6278 9.61176 20.5461 9.7493 20.4261 9.84804C20.3062 9.94678 20.1555 10.0005 20.0001 9.99999V9.99999ZM4.00013 9.99999C3.84544 9.99949 3.69573 9.94527 3.57661 9.84659C3.45748 9.74792 3.37633 9.61092 3.34704 9.45903C3.31774 9.30714 3.34213 9.14979 3.41602 9.01389C3.48991 8.87799 3.60872 8.77198 3.75213 8.71399C6.8268 7.48466 8.1008 5.64599 8.11347 5.62799C8.21254 5.48191 8.36541 5.38098 8.53867 5.34725C8.71193 5.31353 8.89149 5.34974 9.03813 5.44799C9.18458 5.54606 9.28613 5.69822 9.3205 5.87107C9.35487 6.04393 9.31926 6.22337 9.22147 6.36999C9.16213 6.45866 7.73347 8.55866 4.24813 9.95266C4.16917 9.98386 4.08504 9.99991 4.00013 9.99999Z" fill="#664500"/>
<path d="M16.0002 10.6667H18.6668V23.3333L16.0002 23.3027V10.6667ZM5.3335 23.3333L8.00016 23.3027V10.6667H5.3335V23.3333Z" fill="#5DADEC"/>
<path d="M9.99913 12C9.89913 12 9.79713 11.9773 9.7018 11.93C7.36046 10.7593 4.98846 11.918 4.96513 11.93C4.88682 11.9692 4.80156 11.9926 4.71421 11.9988C4.62687 12.005 4.53916 11.994 4.45608 11.9663C4.373 11.9386 4.29619 11.8949 4.23002 11.8375C4.16386 11.7802 4.10964 11.7103 4.07046 11.632C4.03128 11.5537 4.00792 11.4684 4.00169 11.3811C3.99546 11.2938 4.0065 11.206 4.03417 11.123C4.06184 11.0399 4.10561 10.9631 4.16296 10.8969C4.22032 10.8307 4.29015 10.7765 4.36846 10.7373C4.4898 10.6773 7.36713 9.27268 10.2985 10.7373C10.4327 10.8046 10.5403 10.9153 10.6038 11.0514C10.6674 11.1875 10.6831 11.341 10.6484 11.4871C10.6138 11.6333 10.5308 11.7634 10.413 11.8565C10.2951 11.9496 10.1493 12.0002 9.99913 12ZM19.3325 12C19.2325 12 19.1305 11.9773 19.0351 11.93C16.6931 10.7593 14.3218 11.918 14.2985 11.93C14.2202 11.9692 14.1349 11.9926 14.0475 11.9988C13.9602 12.005 13.8725 11.994 13.7894 11.9663C13.7063 11.9386 13.6295 11.8949 13.5634 11.8375C13.4972 11.7802 13.443 11.7103 13.4038 11.632C13.3646 11.5537 13.3412 11.4684 13.335 11.3811C13.3288 11.2938 13.3398 11.206 13.3675 11.123C13.3952 11.0399 13.4389 10.9631 13.4963 10.8969C13.5537 10.8307 13.6235 10.7765 13.7018 10.7373C13.8231 10.6773 16.7025 9.27335 19.6318 10.7373C19.7661 10.8046 19.8737 10.9153 19.9372 11.0514C20.0007 11.1875 20.0164 11.341 19.9818 11.4871C19.9471 11.6333 19.8642 11.7634 19.7463 11.8565C19.6285 11.9496 19.4826 12.0002 19.3325 12V12Z" fill="#664500"/>
<path d="M12 24C18.6274 24 24 23.4031 24 22.6667C24 21.9303 18.6274 21.3333 12 21.3333C5.37258 21.3333 0 21.9303 0 22.6667C0 23.4031 5.37258 24 12 24Z" fill="#5DADEC"/>
<path d="M12 19.3333C13.1046 19.3333 14 18.7364 14 18C14 17.2636 13.1046 16.6667 12 16.6667C10.8954 16.6667 10 17.2636 10 18C10 18.7364 10.8954 19.3333 12 19.3333Z" fill="#E75A70"/>
</g>
</svg>
