<svg width="24" height="24" viewBox="0 0 24 24" fill="none" xmlns="http://www.w3.org/2000/svg">
<g style="mix-blend-mode:luminosity">
<path d="M24.0002 12.1395C24.0002 18.6899 18.6901 24 12.1398 24C5.58944 24 0.279297 18.6899 0.279297 12.1395C0.279297 5.58922 5.58944 0.279083 12.1398 0.279083C18.6901 0.279083 24.0002 5.58922 24.0002 12.1395Z" fill="#FFCC4D"/>
<path d="M12.1397 14.2326C9.61194 14.2326 7.93473 13.9384 5.86068 13.5349C5.38682 13.4434 4.46533 13.5349 4.46533 14.9302C4.46533 17.7209 7.67129 21.2093 12.1397 21.2093C16.6077 21.2093 19.8142 17.7209 19.8142 14.9302C19.8142 13.5349 18.8927 13.4428 18.4188 13.5349C16.3448 13.9384 14.6676 14.2326 12.1397 14.2326ZM6.55835 8.65118C6.55835 8.65118 6.55835 7.25583 7.9537 7.25583C9.34905 7.25583 9.34905 8.65118 9.34905 8.65118V10.0465C9.34905 10.0465 9.34905 11.4419 7.9537 11.4419C6.55835 11.4419 6.55835 10.0465 6.55835 10.0465V8.65118ZM14.9304 8.65118C14.9304 8.65118 14.9304 7.25583 16.3258 7.25583C17.7211 7.25583 17.7211 8.65118 17.7211 8.65118V10.0465C17.7211 10.0465 17.7211 11.4419 16.3258 11.4419C14.9304 11.4419 14.9304 10.0465 14.9304 10.0465V8.65118Z" fill="#664500"/>
<path d="M5.86084 14.9302C5.86084 14.9302 7.95386 15.6279 12.1399 15.6279C16.326 15.6279 18.419 14.9302 18.419 14.9302C18.419 14.9302 17.0236 17.7209 12.1399 17.7209C7.25619 17.7209 5.86084 14.9302 5.86084 14.9302Z" fill="white"/>
</g>
</svg>
