<svg width="24" height="24" viewBox="0 0 24 24" fill="none" xmlns="http://www.w3.org/2000/svg">
<g style="mix-blend-mode:luminosity">
<path d="M23.75 12.125C23.75 18.6835 18.4335 24 11.875 24C5.317 24 0 18.6835 0 12.125C0 5.567 5.317 0.25 11.875 0.25C18.4335 0.25 23.75 5.567 23.75 12.125Z" fill="#FFCC4D"/>
<path d="M9.08089 11.077C9.08089 12.428 8.29889 13.522 7.33439 13.522C6.36939 13.522 5.58789 12.428 5.58789 11.077C5.58789 9.72699 6.36989 8.63199 7.33439 8.63199C8.29939 8.63199 9.08089 9.72699 9.08089 11.077ZM18.1619 11.077C18.1619 12.428 17.3799 13.522 16.4154 13.522C15.4504 13.522 14.6689 12.428 14.6689 11.077C14.6689 9.72699 15.4509 8.63199 16.4154 8.63199C17.3804 8.63199 18.1619 9.72699 18.1619 11.077ZM7.68389 19.11C9.08089 15.6175 16.7644 15.6175 16.7644 17.015C16.7644 17.713 11.1764 16.316 7.68389 19.11" fill="#664500"/>
</g>
</svg>
