<svg width="24" height="24" viewBox="0 0 24 24" fill="none" xmlns="http://www.w3.org/2000/svg">
<path d="M24 12C24 18.6273 18.6273 24 12 24C5.37267 24 0 18.6273 0 12C0 5.37267 5.37267 0 12 0C18.6273 0 24 5.37267 24 12Z" fill="#FFCC4D"/>
<path d="M11.9998 14C9.5845 14 7.98184 13.7187 5.99984 13.3333C5.54717 13.246 4.6665 13.3333 4.6665 14.6667C4.6665 17.3333 7.72984 20.6667 11.9998 20.6667C16.2692 20.6667 19.3332 17.3333 19.3332 14.6667C19.3332 13.3333 18.4525 13.2453 17.9998 13.3333C16.0178 13.7187 14.4152 14 11.9998 14Z" fill="#664500"/>
<path d="M6 14.6667C6 14.6667 8 15.3333 12 15.3333C16 15.3333 18 14.6667 18 14.6667C18 14.6667 16.6667 17.3333 12 17.3333C7.33333 17.3333 6 14.6667 6 14.6667Z" fill="white"/>
<path d="M10.4547 2.94199L7.42672 3.47599L5.86672 0.640661C5.78241 0.488831 5.65284 0.367081 5.49606 0.292374C5.33928 0.217667 5.16311 0.193723 4.99208 0.223879C4.82105 0.254035 4.66368 0.336788 4.54191 0.460609C4.42014 0.58443 4.34002 0.743152 4.31272 0.914661L3.81605 4.11266L0.788052 4.64666C0.613874 4.67731 0.453962 4.76257 0.331452 4.89012C0.208942 5.01766 0.130186 5.18088 0.10658 5.35615C0.0829726 5.53142 0.115738 5.70966 0.200137 5.86507C0.284535 6.02049 0.416189 6.14502 0.576052 6.22066L3.28938 7.50866L2.79072 10.7167C2.7726 10.8354 2.78031 10.9567 2.81332 11.0722C2.84634 11.1877 2.90389 11.2948 2.98204 11.386C3.0602 11.4773 3.15711 11.5506 3.26618 11.601C3.37525 11.6514 3.49391 11.6776 3.61405 11.678C3.83205 11.678 4.04738 11.5927 4.20805 11.43L6.54938 9.05599L9.56138 10.486C9.72054 10.5614 9.89949 10.5844 10.0726 10.5518C10.2456 10.5192 10.4039 10.4325 10.5247 10.3044C10.6454 10.1762 10.7225 10.013 10.7448 9.83835C10.7671 9.66365 10.7334 9.48639 10.6487 9.33199L9.08338 6.48666L11.1934 4.34799C11.3167 4.22183 11.3969 4.05984 11.4224 3.88526C11.4479 3.71069 11.4175 3.53252 11.3354 3.37633C11.2534 3.22014 11.1239 3.09398 10.9657 3.01594C10.8075 2.93791 10.6286 2.91202 10.4547 2.94199ZM13.5454 2.94199L16.5734 3.47599L18.1334 0.640661C18.2175 0.488727 18.347 0.36686 18.5038 0.292068C18.6606 0.217277 18.8368 0.193294 19.0078 0.223466C19.1789 0.253637 19.3362 0.336459 19.4579 0.46037C19.5796 0.584282 19.6596 0.743101 19.6867 0.914661L20.1834 4.11266L23.2114 4.64666C23.5687 4.70933 23.8441 4.99599 23.8921 5.35533C23.9401 5.71466 23.7514 6.06399 23.4234 6.21999L20.7101 7.50799L21.2087 10.716C21.2268 10.8348 21.2191 10.956 21.1861 11.0716C21.1531 11.1871 21.0955 11.2941 21.0174 11.3854C20.9392 11.4766 20.8423 11.5499 20.7333 11.6003C20.6242 11.6507 20.5055 11.677 20.3854 11.6773C20.1674 11.6773 19.9521 11.592 19.7914 11.4293L17.4501 9.05533L14.4381 10.4853C14.2789 10.5607 14.0999 10.5838 13.9269 10.5511C13.7538 10.5185 13.5955 10.4319 13.4748 10.3037C13.354 10.1755 13.2769 10.0124 13.2546 9.83768C13.2324 9.66299 13.266 9.48572 13.3507 9.33133L14.9161 6.48666L12.8061 4.34799C12.6821 4.22206 12.6013 4.06002 12.5753 3.88523C12.5493 3.71043 12.5794 3.53189 12.6614 3.37533C12.7443 3.2192 12.8744 3.09325 13.0332 3.01544C13.1919 2.93763 13.3712 2.91192 13.5454 2.94199V2.94199Z" fill="#E95F28"/>
</svg>
