<?xml version="1.0" encoding="utf-8"?>
<!-- Generator: Adobe Illustrator 27.5.0, SVG Export Plug-In . SVG Version: 6.00 Build 0)  -->
<svg version="1.1" id="Dark_background_logo" xmlns="http://www.w3.org/2000/svg" xmlns:xlink="http://www.w3.org/1999/xlink"
	 x="0px" y="0px" viewBox="0 0 685.2 120.8" style="enable-background:new 0 0 685.2 120.8;" xml:space="preserve">
<style type="text/css">
	.st0{fill-rule:evenodd;clip-rule:evenodd;fill:#29B5E8;}
	.st1{fill-rule:evenodd;clip-rule:evenodd;fill:#FFFFFF;}
	.st2{fill:#FFFFFF;}
</style>
<g>
	<g>
		<g>
			<path class="st0" d="M273.2,29.9c-1.6,1.1-3.1,2.2-4.5,3.5l9.2,9.2c0.8-0.7,1.6-1.4,2.5-2c1.2-0.8,2.4-1.5,3.7-2h0
				c1.3-0.5,2.7-1,4.1-1.2c1.4-0.3,2.8-0.4,4.3-0.4c6,0,11.5,2.4,15.4,6.4c2,2,3.6,4.4,4.7,7.1c1.1,2.6,1.7,5.4,1.7,8.3
				c0,2.9-0.6,5.7-1.7,8.3c-1.1,2.7-2.7,5.1-4.7,7.1c-2,2-4.4,3.6-7.1,4.7c-2.6,1.1-5.4,1.7-8.3,1.7c-1.6,0-3.2-0.2-4.6-0.4
				c-1.4-0.3-2.8-0.7-4-1.3c-1.3-0.6-2.5-1.4-3.8-2.3c-1.2-0.9-2.4-2-3.6-3.2h0l-25.1-25.1l-9.2,9.2l25.1,25.1v0
				c1.7,1.7,3.5,3.3,5.4,4.6c1.9,1.3,3.8,2.5,5.9,3.4c2.1,1,4.3,1.7,6.7,2.2c2.3,0.5,4.8,0.8,7.4,0.8c4.7,0,9.2-0.9,13.3-2.6
				c4.2-1.8,8.1-4.3,11.3-7.6c3.2-3.2,5.8-7,7.6-11.3c1.7-4.1,2.6-8.6,2.6-13.3c0-4.7-0.9-9.2-2.6-13.3c-1.8-4.2-4.3-8.1-7.6-11.3
				c-3.2-3.2-7-5.8-11.3-7.6c-4.1-1.7-8.6-2.6-13.3-2.6c-2.3,0-4.5,0.2-6.7,0.7c-2.2,0.5-4.4,1.1-6.5,2
				C277.1,27.6,275.1,28.7,273.2,29.9z"/>
			<path class="st1" d="M36.1,90.7c3.3,0,6.4-0.3,9.4-0.8c3-0.5,5.9-1.3,8.6-2.4c2.7-1.1,5.3-2.4,7.8-4c2.5-1.6,4.8-3.4,6.9-5.5l0,0
				c2.2-2.1,4.1-4.3,5.8-6.7c1.6-2.3,3-4.8,4.1-7.4c1.1-2.6,1.9-5.3,2.5-8.2c0.5-2.9,0.8-5.8,0.8-9c0-3.1-0.3-6.1-0.8-9
				c-0.5-2.9-1.4-5.6-2.5-8.2c-1.1-2.6-2.5-5.1-4.1-7.4c-1.6-2.3-3.6-4.6-5.8-6.7l0,0l0,0l0,0c-2.2-2.1-4.5-4-6.9-5.5
				c-2.4-1.6-5-2.9-7.8-4c-2.7-1.1-5.6-1.9-8.6-2.4c-3-0.5-6.2-0.8-9.4-0.8H0.7v87.9H36.1L36.1,90.7z M118.6,24.2L118.6,24.2
				c-2.2,0-4.4,0.2-6.4,0.6c-2,0.4-4,1-5.8,1.8c-1.9,0.8-3.6,1.8-5.3,3.1c-1.6,1.1-3.1,2.5-4.5,4L96.1,34c-1.5,1.6-2.8,3.3-3.9,5.2
				c-1.1,1.8-2.1,3.7-2.8,5.8c-0.7,2-1.3,4.2-1.7,6.4c-0.4,2.2-0.6,4.6-0.6,7.1c0,5,0.7,9.5,2.2,13.5l0,0c1.5,4,3.7,7.7,6.6,11
				l0.1,0.1c1.5,1.6,3.1,3,4.8,4.2c1.7,1.2,3.5,2.2,5.3,3c1.9,0.8,3.8,1.4,5.9,1.8c2,0.4,4.2,0.6,6.4,0.6c1.8,0,3.6-0.1,5.3-0.4
				c1.7-0.3,3.4-0.7,5-1.3c1.6-0.6,3.2-1.3,4.8-2.2c1.5-0.9,3-1.9,4.5-3l0.6-0.5l1.8-1.4v2.3v0.8v3.9h13.2V26.1h-13.2V30v0.8V33
				l-1.8-1.4l-0.6-0.5c-1.4-1.2-2.9-2.2-4.5-3c-1.5-0.9-3.1-1.6-4.8-2.2c-1.6-0.6-3.3-1-5-1.3C122.2,24.3,120.4,24.2,118.6,24.2
				L118.6,24.2z M134.6,43.5L134.6,43.5c0.9,1,1.8,2.1,2.5,3.2l0,0c0.7,1.1,1.3,2.3,1.8,3.5c0.5,1.2,0.8,2.5,1.1,3.9
				c0.2,1.4,0.4,2.8,0.4,4.3c0,1.5-0.1,2.9-0.4,4.3c-0.2,1.4-0.6,2.7-1.1,3.9c-0.5,1.2-1.1,2.4-1.8,3.5l0,0
				c-0.7,1.1-1.5,2.2-2.5,3.2c-0.9,1-1.9,1.9-3,2.7c-1.1,0.8-2.2,1.4-3.3,1.9c-1.2,0.5-2.4,0.9-3.7,1.1c-1.3,0.2-2.6,0.4-3.9,0.4
				c-1.4,0-2.7-0.1-4-0.4c-1.3-0.3-2.5-0.6-3.7-1.1c-1.2-0.5-2.3-1.1-3.4-1.9c-1.1-0.8-2-1.6-3-2.6c-0.9-1-1.8-2.1-2.5-3.2
				c-0.7-1.1-1.3-2.3-1.7-3.6c-0.5-1.2-0.8-2.5-1-3.9c-0.2-1.4-0.3-2.8-0.3-4.2c0-1.5,0.1-2.9,0.3-4.2c0.2-1.4,0.6-2.7,1-3.9
				c0.5-1.3,1-2.4,1.7-3.6c0.7-1.1,1.5-2.2,2.5-3.2c0.9-1,1.9-1.9,3-2.6c1.1-0.8,2.2-1.4,3.4-1.9c1.2-0.5,2.4-0.9,3.7-1.1
				c1.3-0.3,2.6-0.4,4-0.4c1.4,0,2.7,0.1,3.9,0.4c1.3,0.2,2.5,0.6,3.7,1.1c1.2,0.5,2.3,1.1,3.3,1.9
				C132.6,41.6,133.6,42.5,134.6,43.5L134.6,43.5z M36.1,15.9L36.1,15.9c2.1,0,4.2,0.2,6.2,0.6c2,0.4,3.9,0.9,5.8,1.7
				c1.8,0.7,3.6,1.7,5.3,2.8c1.7,1.1,3.2,2.4,4.7,3.9c1.5,1.5,2.7,3,3.9,4.7c1.1,1.7,2,3.4,2.8,5.3c0.7,1.8,1.3,3.8,1.7,5.8
				c0.4,2,0.6,4.1,0.6,6.2c0,2.1-0.2,4.2-0.6,6.2h0c-0.4,2-0.9,3.9-1.7,5.7c-0.7,1.8-1.7,3.6-2.8,5.3c-1.1,1.7-2.4,3.3-3.9,4.8h0
				l0,0c-1.5,1.5-3,2.8-4.7,3.9c-1.7,1.1-3.4,2-5.3,2.8c-1.8,0.7-3.8,1.3-5.8,1.7c-2,0.4-4.1,0.6-6.2,0.6H16.6h-0.4h-1.1v-1.1v-0.4
				V17.4V17v-1.1h1.1h0.4H36.1z"/>
			<path class="st1" d="M159.1,37.3h8.1h0.4h1.1v1.1v0.4v32.1c0,1.4,0.1,2.8,0.4,4.1c0.3,1.3,0.6,2.5,1.1,3.7
				c0.5,1.2,1.1,2.3,1.9,3.3c0.8,1,1.7,2,2.7,3c1,1,2.1,1.8,3.3,2.5c1.2,0.7,2.4,1.3,3.6,1.8c1.3,0.5,2.6,0.8,4,1.1
				c1.4,0.2,2.9,0.4,4.4,0.4h8.5V78.2h-7c-1.4,0-2.6-0.2-3.8-0.7c-1.2-0.5-2.3-1.2-3.2-2c-0.9-0.9-1.6-1.9-2.1-3.1
				c-0.5-1.2-0.7-2.4-0.7-3.8V38.8v-0.4v-1.1h1.1h0.4h15.3V26.1h-15.3h-0.4H182V25v-0.4V12.9h-13.3v11.8V25v1.1h-1.1h-0.4h-8.1V37.3
				z"/>
			<path class="st0" d="M346.2,119.9V86.8v-0.8v-2.3l1.8,1.4l0.6,0.5c1.4,1.2,2.9,2.2,4.4,3c1.5,0.9,3.1,1.6,4.7,2.2
				c1.6,0.6,3.3,1,5,1.3c1.7,0.3,3.5,0.4,5.3,0.4c4.5,0,8.6-0.8,12.3-2.4c1.9-0.8,3.6-1.8,5.3-3c1.7-1.2,3.3-2.6,4.8-4.2l0.2-0.2
				c1.4-1.6,2.7-3.3,3.8-5c1.1-1.8,2.1-3.8,2.8-5.8c0.8-2,1.3-4.2,1.7-6.4c0.4-2.2,0.6-4.6,0.6-7.1c0-2.5-0.2-4.9-0.6-7.1
				c-0.4-2.3-0.9-4.4-1.7-6.4c-0.7-2-1.7-3.9-2.8-5.8c-1.1-1.8-2.5-3.5-4-5.2l0,0c-1.5-1.6-3.1-3.1-4.8-4.3
				c-1.7-1.2-3.5-2.2-5.3-3.1c-1.9-0.8-3.8-1.4-5.8-1.8c-2-0.4-4.2-0.6-6.4-0.6c-1.8,0-3.6,0.1-5.3,0.4c-1.7,0.3-3.4,0.7-5,1.3
				c-1.6,0.6-3.2,1.3-4.7,2.2c-1.5,0.9-3,1.9-4.4,3l-0.6,0.5l-1.8,1.4v-2.3V30v-3.9H333v93.8H346.2L346.2,119.9z M453.9,39.7
				L453.9,39.7c-0.5-2.1-1.2-4.1-2.3-5.8c-1.3-2-2.9-3.8-4.9-5.2c-2.1-1.5-4.6-2.6-7.4-3.4c-2.8-0.8-6-1.2-9.5-1.2
				c-3.9,0-7.4,0.4-10.6,1.3c-3,0.9-5.7,2.2-7.8,3.9c-2,1.6-3.6,3.7-4.7,6.1c-1,2.4-1.6,5.1-1.6,8.2c0,2.2,0.3,4.2,0.8,6
				c0.6,1.7,1.4,3.3,2.6,4.7c1.2,1.4,2.7,2.6,4.6,3.8c1.9,1.1,4.3,2.1,7,3.1l0.5,0.2l13.4,4.2l0,0l0,0l0,0c1.3,0.4,2.5,0.9,3.5,1.4
				c1,0.5,1.9,1.1,2.6,1.7c0.8,0.7,1.4,1.4,1.8,2.2c0.4,0.8,0.6,1.7,0.6,2.6c0,1.3-0.3,2.4-1,3.4c-0.6,1-1.6,1.9-2.7,2.6
				c-1.1,0.7-2.4,1.2-3.9,1.5c-1.5,0.3-3.1,0.5-4.8,0.5c-1.9,0-3.6-0.2-5.2-0.6c-1.6-0.4-3.1-1-4.4-1.8c-1.3-0.8-2.3-1.7-3.2-2.8
				c-0.7-0.8-1.2-1.8-1.5-2.8l-12.4,1.8c0.5,2.4,1.4,4.6,2.6,6.5c1.4,2.2,3.2,4.1,5.4,5.7h0c2.2,1.6,4.9,2.8,8,3.7
				c3.1,0.8,6.5,1.3,10.3,1.3c3.9,0,7.5-0.5,10.7-1.4c3.1-0.9,5.8-2.2,8-4c2.1-1.7,3.8-3.7,4.9-6.2c1.1-2.4,1.7-5.1,1.7-8.2
				c0-2.3-0.3-4.3-0.9-6.2c-0.6-1.8-1.6-3.5-2.9-5c-1.3-1.5-3-2.9-5.1-4.2c-2.1-1.3-4.7-2.4-7.7-3.5l-0.5-0.2l-13.4-4.5l0,0
				c-1.1-0.4-2-0.8-2.9-1.3c-0.9-0.5-1.6-1-2.1-1.5c-0.6-0.6-1.1-1.2-1.4-1.9c-0.3-0.7-0.5-1.4-0.5-2.2c0-1.2,0.3-2.2,0.9-3.1
				c0.6-0.9,1.4-1.7,2.4-2.4c1-0.6,2.2-1.1,3.5-1.4c1.3-0.3,2.7-0.5,4.2-0.5c1.7,0,3.3,0.2,4.7,0.5c1.4,0.3,2.7,0.8,3.8,1.4
				c1.1,0.6,2,1.4,2.8,2.3c0.6,0.7,1.1,1.5,1.4,2.3L453.9,39.7L453.9,39.7z M380,43.5L380,43.5c0.9,1,1.8,2.1,2.5,3.2l0,0
				c0.7,1.1,1.3,2.3,1.8,3.5c0.5,1.2,0.8,2.5,1.1,3.9c0.2,1.4,0.4,2.8,0.4,4.3c0,1.5-0.1,2.9-0.4,4.3c-0.2,1.4-0.6,2.7-1.1,3.9
				c-0.5,1.2-1.1,2.4-1.8,3.5l0,0c-0.7,1.1-1.5,2.2-2.5,3.2c-0.9,1-1.9,1.9-3,2.7c-1.1,0.8-2.2,1.4-3.3,1.9
				c-1.2,0.5-2.4,0.9-3.7,1.1c-1.3,0.2-2.6,0.4-3.9,0.4c-1.4,0-2.7-0.1-3.9-0.4c-1.3-0.2-2.5-0.6-3.7-1.1c-1.2-0.5-2.3-1.1-3.3-1.9
				c-1.1-0.8-2.1-1.6-3-2.7c-0.9-1-1.8-2.1-2.5-3.2c-0.7-1.1-1.3-2.3-1.7-3.6c-0.5-1.2-0.8-2.5-1-3.9c-0.2-1.4-0.3-2.8-0.3-4.2
				c0-1.5,0.1-2.9,0.3-4.2c0.2-1.4,0.6-2.7,1-3.9c0.5-1.3,1.1-2.4,1.7-3.6c0.7-1.1,1.5-2.2,2.5-3.2c0.9-1,1.9-1.9,3-2.7
				c1.1-0.8,2.2-1.4,3.3-1.9c1.2-0.5,2.4-0.9,3.7-1.1c1.3-0.2,2.6-0.4,3.9-0.4c1.4,0,2.7,0.1,3.9,0.4c1.3,0.2,2.5,0.6,3.7,1.1
				c1.2,0.5,2.3,1.1,3.3,1.9C378,41.6,379,42.5,380,43.5z"/>
			<path class="st1" d="M257.3,87.7c1.6-1,3.1-2.2,4.5-3.5l-9.2-9.2c-0.8,0.7-1.6,1.4-2.5,2c-1.2,0.8-2.4,1.5-3.7,2
				c-1.3,0.5-2.7,1-4.1,1.2c-1.4,0.3-2.8,0.4-4.3,0.4c-6,0-11.4-2.4-15.4-6.4c-2-2-3.6-4.4-4.7-7.1c-1.1-2.6-1.6-5.4-1.6-8.3
				c0-6,2.4-11.4,6.4-15.4c2-2,4.4-3.6,7.1-4.7c2.6-1.1,5.4-1.7,8.3-1.7c1.6,0,3.2,0.2,4.6,0.4c1.4,0.3,2.8,0.7,4,1.3
				c1.3,0.6,2.5,1.4,3.8,2.3c1.2,0.9,2.4,2,3.6,3.2l25.1,25.1l9.2-9.2l-25.1-25.1l0,0c-1.7-1.7-3.5-3.3-5.4-4.6
				c-1.9-1.3-3.8-2.5-5.9-3.5c-2.1-1-4.3-1.7-6.7-2.2c-2.3-0.5-4.8-0.8-7.4-0.8c-4.7,0-9.2,0.9-13.3,2.6c-4.2,1.8-8.1,4.3-11.3,7.6
				c-3.2,3.2-5.8,7-7.6,11.3c-1.7,4.1-2.6,8.6-2.6,13.3c0,4.7,0.9,9.2,2.6,13.3c1.8,4.2,4.3,8.1,7.6,11.3c3.2,3.2,7,5.8,11.3,7.6
				c4.1,1.7,8.6,2.6,13.3,2.6c2.3,0,4.5-0.2,6.7-0.7c2.2-0.5,4.4-1.1,6.5-2C253.3,90.1,255.4,89,257.3,87.7z"/>
		</g>
		<path class="st2" d="M470.6,88.1c-1.6-1.6-2.4-3.6-2.4-6s0.8-4.4,2.4-6c1.6-1.6,3.6-2.4,6-2.4c2.3,0,4.3,0.8,5.9,2.4
			c1.6,1.6,2.4,3.6,2.4,6s-0.8,4.4-2.4,6c-1.6,1.6-3.6,2.4-5.9,2.4C474.2,90.5,472.2,89.7,470.6,88.1z"/>
		<path class="st2" d="M512.2,4.4v85.3H499V4.4H512.2z"/>
		<path class="st2" d="M530.2,15.3c-1.6-1.6-2.4-3.6-2.4-6s0.8-4.4,2.4-6c1.6-1.6,3.6-2.4,6-2.4c2.3,0,4.3,0.8,5.9,2.4
			s2.4,3.6,2.4,6s-0.8,4.4-2.4,6s-3.6,2.4-5.9,2.4C533.8,17.8,531.8,17,530.2,15.3z"/>
		<rect x="529.5" y="26.2" class="st2" width="13.1" height="63.5"/>
		<path class="st2" d="M584.5,77.9l18-51.8h14.2l-24.2,63.5h-15.9l-24.1-63.5h14.1L584.5,77.9z"/>
		<path class="st2" d="M684.5,56.1c0-6.1-1.3-11.5-3.9-16.1c-2.6-4.7-6.3-8.3-11-11c-4.7-2.6-10-3.9-16-3.9c-6.2,0-11.7,1.3-16.5,4
			c-4.8,2.7-8.5,6.5-11.2,11.5c-2.7,5-4,10.7-4,17.2s1.4,12.3,4.1,17.2c2.7,5,6.5,8.8,11.3,11.5c4.8,2.7,10.2,4.1,16.3,4.1
			c7.5,0,13.7-1.9,18.7-5.6s8.5-8.5,10.4-14.4h-14.2c-2.9,5.9-7.9,8.9-15,8.9c-5,0-9.2-1.6-12.6-4.7c-3.4-3.1-5.3-7.3-5.6-12.6h48.6
			C684.4,60.5,684.5,58.4,684.5,56.1z M635.5,52.9c0.5-5.1,2.4-9.2,5.7-12.2c3.3-3,7.2-4.5,11.8-4.5c5.1,0,9.3,1.5,12.6,4.5
			c3.3,3,5.1,7.1,5.1,12.2H635.5z"/>
	</g>
</g>
</svg>
