<svg width="20" height="19" viewBox="0 0 20 19" fill="none" xmlns="http://www.w3.org/2000/svg">
<path fill-rule="evenodd" clip-rule="evenodd" d="M0 3.07692C0 1.37759 1.37759 0 3.07692 0H16.9231C18.6224 0 20 1.37759 20 3.07692V15.3846C20 17.084 18.6224 18.4615 16.9231 18.4615H3.07692C1.37759 18.4615 0 17.084 0 15.3846V3.07692ZM4.07146 4.07146C4.37186 3.77105 4.85891 3.77105 5.15931 4.07146L7.46701 6.37915C7.76741 6.67955 7.76741 7.1666 7.46701 7.46701L5.15931 9.7747C4.85891 10.0751 4.37186 10.0751 4.07146 9.7747C3.77105 9.47429 3.77105 8.98724 4.07146 8.68684L5.83522 6.92308L4.07146 5.15931C3.77105 4.85891 3.77105 4.37186 4.07146 4.07146ZM8.46154 8.46154C8.0367 8.46154 7.69231 8.80593 7.69231 9.23077C7.69231 9.6556 8.0367 10 8.46154 10H11.5385C11.9633 10 12.3077 9.6556 12.3077 9.23077C12.3077 8.80593 11.9633 8.46154 11.5385 8.46154H8.46154Z" fill="#78716C"/>
</svg>
