<svg width="15" height="26" viewBox="0 0 15 26" fill="none" xmlns="http://www.w3.org/2000/svg">
    <path
        d="M4.92215 25.4555C4.75177 25.4037 4.61103 25.3092 4.49992 25.1722C4.38881 25.0352 4.33325 24.8666 4.33325 24.6666V16.6666H2.55545C1.94065 16.6666 1.41659 16.45 0.983252 16.0166C0.549919 15.5833 0.333252 15.0592 0.333252 14.4444V2.88883C0.333252 2.27403 0.549919 1.74996 0.983252 1.31663C1.41659 0.883293 1.94065 0.666626 2.55545 0.666626H11.3333C11.911 0.666626 12.3833 0.896259 12.7499 1.35553C13.1166 1.81477 13.2184 2.32587 13.0555 2.88883L10.9999 9.99996H13.1444C13.8111 9.99996 14.3055 10.2963 14.6277 10.8889C14.9499 11.4814 14.9148 12.0592 14.5222 12.6222L5.85545 25.1444C5.73694 25.3148 5.59435 25.4222 5.42769 25.4666C5.26102 25.5111 5.09251 25.5074 4.92215 25.4555Z"
        fill="url(#paint0_linear_1_1223)" />
    <defs>
        <linearGradient id="paint0_linear_1_1223" x1="11.2561" y1="4.42152" x2="-1.38178"
            y2="16.1552" gradientUnits="userSpaceOnUse">
            <stop stop-color="#FFB45B" />
            <stop offset="1" stop-color="#FF8A00" />
        </linearGradient>
    </defs>
</svg>
