<svg width="20" height="20" viewBox="0 0 20 20" fill="currentColor"
  xmlns="http://www.w3.org/2000/svg">

  <path class="polygon-120-stroke" id="Polygon-120 (Stroke)" fill-rule="evenodd" clip-rule="evenodd"
    d="M11.7175 0.995996C12.2595 1.94355 11.93 3.15063 10.9814 3.69209L5.08342 7.05882C4.92752 7.14781 4.83129 7.31355 4.83129 7.49306V12.7781C4.83129 12.9576 4.92752 13.1234 5.08342 13.2124L9.75213 15.8774C9.90574 15.9651 10.0943 15.9651 10.2479 15.8774L14.9166 13.2124C15.0725 13.1234 15.1687 12.9576 15.1687 12.7781V9.49125L10.9721 11.8566C10.0206 12.3929 8.81402 12.0571 8.27717 11.1066C7.74031 10.1561 8.07644 8.95087 9.02793 8.41458L15.0328 5.03008C16.8619 3.99914 19.125 5.31932 19.125 7.41729V13.1794C19.125 14.529 18.4011 15.7752 17.228 16.4448L11.8679 19.5045C10.7105 20.1652 9.28955 20.1652 8.13211 19.5045L2.77197 16.4448C1.59893 15.7752 0.875 14.529 0.875 13.1794V7.09177C0.875 5.74215 1.59893 4.49601 2.77197 3.82641L9.01856 0.260697C9.96712 -0.280762 11.1755 0.0484425 11.7175 0.995996Z"
  />
</svg>
