<svg width="30" height="32" fill="none" xmlns="http://www.w3.org/2000/svg"><path fill-rule="evenodd" clip-rule="evenodd" d="M17.748 1.594a3.16 3.16 0 0 1-1.178 4.313l-9.437 5.387a.8.8 0 0 0-.403.695v8.456a.8.8 0 0 0 .403.695l7.47 4.264a.8.8 0 0 0 .794 0l7.47-4.264a.8.8 0 0 0 .403-.695v-5.259l-6.715 3.785a3.167 3.167 0 0 1-4.312-1.2 3.16 3.16 0 0 1 1.202-4.308l9.607-5.415c2.927-1.65 6.548.463 6.548 3.82v9.22a6.016 6.016 0 0 1-3.035 5.224l-8.576 4.895a6.03 6.03 0 0 1-5.978 0l-8.576-4.895A6.016 6.016 0 0 1 .4 21.087v-9.74a6.016 6.016 0 0 1 3.035-5.225L13.43.417a3.167 3.167 0 0 1 4.318 1.177Z" fill="url(#a)"/><defs><linearGradient id="a" x1="15.4" y1="0" x2="14.671" y2="32.984" gradientUnits="userSpaceOnUse"><stop offset=".594" stop-color="#005BBB"/><stop offset=".594" stop-color="#FFD500"/></linearGradient></defs></svg>
