<svg width="18" height="18" viewBox="0 0 18 18" fill="none" xmlns="http://www.w3.org/2000/svg">
<rect width="18" height="18" rx="4" fill="#666564"/>
<path fill-rule="evenodd" clip-rule="evenodd" d="M9.85876 4.498C10.1298 4.97177 9.96499 5.57532 9.49072 5.84605L6.54171 7.52941C6.46376 7.57391 6.41565 7.65677 6.41565 7.74653V10.3891C6.41565 10.4788 6.46376 10.5617 6.54171 10.6062L8.87606 11.9387C8.95287 11.9825 9.04713 11.9825 9.12394 11.9387L11.4583 10.6062C11.5362 10.5617 11.5844 10.4788 11.5844 10.3891V8.74563L9.48603 9.9283C9.01029 10.1964 8.40701 10.0286 8.13858 9.55332C7.87015 9.07807 8.03822 8.47544 8.51397 8.20729L11.5164 6.51504C12.4309 5.99957 13.5625 6.65966 13.5625 7.70864V10.5897C13.5625 11.2645 13.2005 11.8876 12.614 12.2224L9.93395 13.7522C9.35523 14.0826 8.64477 14.0826 8.06605 13.7522L5.38598 12.2224C4.79946 11.8876 4.4375 11.2645 4.4375 10.5897V7.54588C4.4375 6.87107 4.79947 6.248 5.38598 5.9132L8.50928 4.13035C8.98356 3.85962 9.58774 4.02422 9.85876 4.498Z" fill="white"/>
</svg>
