<svg width="32" height="32" fill="none" xmlns="http://www.w3.org/2000/svg"><path fill-rule="evenodd" clip-rule="evenodd" d="M15.996 32c-1.03 0-2.06-.265-2.985-.793l-8.576-4.895A6.016 6.016 0 0 1 1.4 21.087V20h6.33v.445a.8.8 0 0 0 .403.695l7.47 4.264a.8.8 0 0 0 .794 0l7.47-4.264a.8.8 0 0 0 .403-.695V20h6.33v1.087a6.016 6.016 0 0 1-3.035 5.225l-8.576 4.895a6.025 6.025 0 0 1-2.985.793h-.008Z" fill="#FC0"/><path fill-rule="evenodd" clip-rule="evenodd" d="M17.57 5.907a3.16 3.16 0 0 0 1.178-4.313A3.164 3.164 0 0 0 14.43.417L4.435 6.122A6.016 6.016 0 0 0 1.4 11.347V20h6.33v-8.011a.8.8 0 0 1 .403-.695l9.437-5.387ZM24.27 20h6.33v-8.132c0-3.357-3.621-5.47-6.548-3.82l-9.607 5.415a3.16 3.16 0 0 0-1.202 4.308 3.167 3.167 0 0 0 4.312 1.2l6.715-3.785V20Z" fill="#015BBB"/></svg>
