<svg width="851" height="1430" viewBox="0 0 851 1430" fill="#f3f4f6" xmlns="http://www.w3.org/2000/svg">
<path d="M88.0239 921.453C92.9743 918.595 99.0735 918.595 104.024 921.453L171.183 960.227C176.133 963.085 179.183 968.367 179.183 974.084V1051.63C179.183 1057.35 176.133 1062.63 171.183 1065.49L104.024 1104.26C99.0735 1107.12 92.9743 1107.12 88.0239 1104.26L20.8648 1065.49C15.9143 1062.63 12.8648 1057.35 12.8648 1051.63V974.084C12.8648 968.367 15.9143 963.085 20.8648 960.227L88.0239 921.453Z" />
<path d="M280.071 921.453C285.021 918.595 291.12 918.595 296.071 921.453L363.23 960.227C368.18 963.085 371.23 968.367 371.23 974.084V1051.63C371.23 1057.35 368.18 1062.63 363.23 1065.49L296.071 1104.26C291.12 1107.12 285.021 1107.12 280.071 1104.26L212.912 1065.49C207.961 1062.63 204.912 1057.35 204.912 1051.63V974.084C204.912 968.367 207.961 963.085 212.912 960.227L280.071 921.453Z" />
<path d="M184.047 761.167C188.998 758.308 195.097 758.308 200.047 761.167L267.206 799.941C272.157 802.799 275.206 808.081 275.206 813.797V891.346C275.206 897.062 272.157 902.344 267.206 905.202L200.047 943.977C195.097 946.835 188.998 946.835 184.047 943.977L116.888 905.202C111.938 902.344 108.888 897.062 108.888 891.346V813.797C108.888 808.081 111.938 802.799 116.888 799.941L184.047 761.167Z" />
<path d="M367.235 761.905C372.185 759.047 378.284 759.047 383.235 761.905L450.394 800.679C455.344 803.537 458.394 808.819 458.394 814.536V892.084C458.394 897.801 455.344 903.083 450.394 905.941L383.235 944.715C378.284 947.573 372.185 947.573 367.235 944.715L300.076 905.941C295.125 903.083 292.076 897.801 292.076 892.084V814.536C292.076 808.819 295.125 803.537 300.076 800.679L367.235 761.905Z" />
<path d="M559.282 761.905C564.232 759.047 570.331 759.047 575.282 761.905L642.441 800.679C647.391 803.537 650.441 808.819 650.441 814.536V892.084C650.441 897.801 647.391 903.083 642.441 905.941L575.282 944.715C570.331 947.573 564.232 947.573 559.282 944.715L492.123 905.941C487.172 903.083 484.123 897.801 484.123 892.084V814.536C484.123 808.819 487.172 803.537 492.123 800.679L559.282 761.905Z" />
<path d="M746.047 1081.17C750.998 1078.31 757.097 1078.31 762.047 1081.17L829.206 1119.94C834.157 1122.8 837.206 1128.08 837.206 1133.8V1211.35C837.206 1217.06 834.157 1222.34 829.206 1225.2L762.047 1263.98C757.097 1266.83 750.998 1266.83 746.047 1263.98L678.888 1225.2C673.938 1222.34 670.888 1217.06 670.888 1211.35V1133.8C670.888 1128.08 673.938 1122.8 678.888 1119.94L746.047 1081.17Z" />
<path d="M373.235 1081.9C378.185 1079.05 384.284 1079.05 389.235 1081.9L456.394 1120.68C461.344 1123.54 464.394 1128.82 464.394 1134.54V1212.08C464.394 1217.8 461.344 1223.08 456.394 1225.94L389.235 1264.72C384.284 1267.57 378.185 1267.57 373.235 1264.72L306.076 1225.94C301.125 1223.08 298.076 1217.8 298.076 1212.08V1134.54C298.076 1128.82 301.125 1123.54 306.076 1120.68L373.235 1081.9Z" />
<path d="M559.282 1081.9C564.232 1079.05 570.331 1079.05 575.282 1081.9L642.441 1120.68C647.391 1123.54 650.441 1128.82 650.441 1134.54V1212.08C650.441 1217.8 647.391 1223.08 642.441 1225.94L575.282 1264.72C570.331 1267.57 564.232 1267.57 559.282 1264.72L492.123 1225.94C487.172 1223.08 484.123 1217.8 484.123 1212.08V1134.54C484.123 1128.82 487.172 1123.54 492.123 1120.68L559.282 1081.9Z" />
<path d="M463.258 601.619C468.209 598.761 474.308 598.761 479.258 601.619L546.417 640.393C551.368 643.251 554.417 648.533 554.417 654.25V731.798C554.417 737.514 551.368 742.797 546.417 745.655L479.258 784.429C474.308 787.287 468.209 787.287 463.258 784.429L396.099 745.655C391.149 742.797 388.099 737.514 388.099 731.798V654.25C388.099 648.533 391.149 643.251 396.099 640.393L463.258 601.619Z" />
<path d="M653.258 1241.62C658.209 1238.76 664.308 1238.76 669.258 1241.62L736.417 1280.39C741.368 1283.25 744.417 1288.53 744.417 1294.25V1371.8C744.417 1377.51 741.368 1382.8 736.417 1385.65L669.258 1424.43C664.308 1427.29 658.209 1427.29 653.258 1424.43L586.099 1385.65C581.149 1382.8 578.099 1377.51 578.099 1371.8V1294.25C578.099 1288.53 581.149 1283.25 586.099 1280.39L653.258 1241.62Z" />
<path d="M655.305 921.453C660.256 918.595 666.355 918.595 671.305 921.453L738.464 960.227C743.415 963.085 746.464 968.367 746.464 974.084V1051.63C746.464 1057.35 743.415 1062.63 738.464 1065.49L671.305 1104.26C666.355 1107.12 660.256 1107.12 655.305 1104.26L588.146 1065.49C583.196 1062.63 580.146 1057.35 580.146 1051.63V974.084C580.146 968.367 583.196 963.085 588.146 960.227L655.305 921.453Z" />
<path d="M463.258 921.453C468.209 918.595 474.308 918.595 479.258 921.453L546.417 960.227C551.368 963.085 554.417 968.367 554.417 974.084V1051.63C554.417 1057.35 551.368 1062.63 546.417 1065.49L479.258 1104.26C474.308 1107.12 468.209 1107.12 463.258 1104.26L396.099 1065.49C391.149 1062.63 388.099 1057.35 388.099 1051.63V974.084C388.099 968.367 391.149 963.085 396.099 960.227L463.258 921.453Z" />
<path d="M88.0239 187.429C92.9743 190.287 99.0735 190.287 104.024 187.429L171.183 148.655C176.133 145.797 179.183 140.515 179.183 134.798L179.183 57.2496C179.183 51.5333 176.133 46.2513 171.183 43.3932L104.024 4.61881C99.0735 1.76068 92.9743 1.76069 88.0239 4.61881L20.8648 43.3932C15.9144 46.2513 12.8648 51.5333 12.8648 57.2496L12.8648 134.798C12.8648 140.515 15.9143 145.797 20.8648 148.655L88.0239 187.429Z" />
<path d="M559.282 346.977C564.232 349.835 570.331 349.835 575.282 346.977L642.441 308.203C647.391 305.344 650.441 300.062 650.441 294.346L650.441 216.797C650.441 211.081 647.391 205.799 642.441 202.941L575.282 164.167C570.331 161.309 564.232 161.309 559.282 164.167L492.123 202.941C487.172 205.799 484.123 211.081 484.123 216.797L484.123 294.346C484.123 300.062 487.172 305.344 492.123 308.203L559.282 346.977Z" />
<path d="M655.305 187.429C660.256 190.287 666.355 190.287 671.305 187.429L738.464 148.655C743.415 145.797 746.464 140.515 746.464 134.798L746.464 57.2496C746.464 51.5333 743.415 46.2513 738.464 43.3932L671.305 4.61881C666.355 1.76068 660.256 1.76069 655.305 4.61881L588.146 43.3932C583.196 46.2513 580.146 51.5333 580.146 57.2496L580.146 134.798C580.146 140.515 583.196 145.797 588.146 148.655L655.305 187.429Z" />
<path d="M463.258 187.429C468.209 190.287 474.308 190.287 479.258 187.429L546.417 148.655C551.368 145.797 554.417 140.515 554.417 134.798L554.417 57.2496C554.417 51.5333 551.368 46.2513 546.417 43.3932L479.258 4.61881C474.308 1.76068 468.209 1.76069 463.258 4.61881L396.099 43.3932C391.149 46.2513 388.099 51.5333 388.099 57.2496L388.099 134.798C388.099 140.515 391.149 145.797 396.099 148.655L463.258 187.429Z" />
</svg>
