<svg xmlns="http://www.w3.org/2000/svg" width="840" height="1276" fill="none">
  <path fill="#A8A29E" d="M622 386.381c4.95 2.858 11.05 2.858 16 0l74.933-43.262c4.95-2.858 8-8.14 8-13.857v-86.524c0-5.717-3.05-10.999-8-13.857L638 185.619c-4.95-2.858-11.05-2.858-16 0l-74.933 43.262c-4.95 2.858-8 8.14-8 13.857v86.524c0 5.717 3.05 10.999 8 13.857L622 386.381Zm-525-181c4.95 2.858 11.05 2.858 16 0l74.933-43.262c4.95-2.858 8-8.14 8-13.857V61.7376c0-5.7162-3.05-10.9983-8-13.8564L113 4.6188c-4.95-2.85812-11.05-2.85812-16 0L22.0673 47.8812c-4.9504 2.8581-8 8.1402-8 13.8564v86.5244c0 5.717 3.0496 10.999 8 13.857L97 205.381Zm630 0c4.95 2.858 11.05 2.858 16 0l74.933-43.262c4.95-2.858 8-8.14 8-13.857V61.7376c0-5.7162-3.05-10.9983-8-13.8564L743 4.6188c-4.95-2.85812-11.05-2.85812-16 0l-74.933 43.2624c-4.95 2.8581-8 8.1402-8 13.8564v86.5244c0 5.717 3.05 10.999 8 13.857L727 205.381Zm-210 0c4.95 2.858 11.05 2.858 16 0l74.933-43.262c4.95-2.858 8-8.14 8-13.857V61.7376c0-5.7162-3.05-10.9983-8-13.8564L533 4.6188c-4.95-2.85812-11.05-2.85812-16 0l-74.933 43.2624c-4.95 2.8581-8 8.1402-8 13.8564v86.5244c0 5.717 3.05 10.999 8 13.857L517 205.381ZM202 712.619c4.95-2.858 11.05-2.858 16 0l74.933 43.262c4.95 2.858 8 8.14 8 13.857v86.524c0 5.717-3.05 10.999-8 13.857L218 913.381c-4.95 2.858-11.05 2.858-16 0l-74.933-43.262c-4.95-2.858-8-8.14-8-13.857v-86.524c0-5.717 3.05-10.999 8-13.857L202 712.619Zm420 0c4.95-2.858 11.05-2.858 16 0l74.933 43.262c4.95 2.858 8 8.14 8 13.857v86.524c0 5.717-3.05 10.999-8 13.857L638 913.381c-4.95 2.858-11.05 2.858-16 0l-74.933-43.262c-4.95-2.858-8-8.14-8-13.857v-86.524c0-5.717 3.05-10.999 8-13.857L622 712.619Zm-210 0c4.95-2.858 11.05-2.858 16 0l74.933 43.262c4.95 2.858 8 8.14 8 13.857v86.524c0 5.717-3.05 10.999-8 13.857L428 913.381c-4.95 2.858-11.05 2.858-16 0l-74.933-43.262c-4.95-2.858-8-8.14-8-13.857v-86.524c0-5.717 3.05-10.999 8-13.857L412 712.619Zm210 358.001c4.95-2.86 11.05-2.86 16 0l74.933 43.26c4.95 2.86 8 8.14 8 13.86v86.52c0 5.72-3.05 11-8 13.86L638 1271.38c-4.95 2.86-11.05 2.86-16 0l-74.933-43.26c-4.95-2.86-8-8.14-8-13.86v-86.52c0-5.72 3.05-11 8-13.86L622 1070.62Zm-210 0c4.95-2.86 11.05-2.86 16 0l74.933 43.26c4.95 2.86 8 8.14 8 13.86v86.52c0 5.72-3.05 11-8 13.86L428 1271.38c-4.95 2.86-11.05 2.86-16 0l-74.933-43.26c-4.95-2.86-8-8.14-8-13.86v-86.52c0-5.72 3.05-11 8-13.86L412 1070.62Zm105-535.001c4.95-2.858 11.05-2.858 16 0l74.933 43.262c4.95 2.858 8 8.14 8 13.857v86.524c0 5.717-3.05 10.999-8 13.857L533 736.381c-4.95 2.858-11.05 2.858-16 0l-74.933-43.262c-4.95-2.858-8-8.14-8-13.857v-86.524c0-5.717 3.05-10.999 8-13.857L517 535.619Zm-420 358c4.95-2.858 11.05-2.858 16 0l74.933 43.262c4.95 2.858 8 8.14 8 13.857v86.522c0 5.72-3.05 11-8 13.86L113 1094.38c-4.95 2.86-11.05 2.86-16 0l-74.9327-43.26c-4.9504-2.86-8-8.14-8-13.86v-86.522c0-5.717 3.0496-10.999 8-13.857L97 893.619Zm630 0c4.95-2.858 11.05-2.858 16 0l74.933 43.262c4.95 2.858 8 8.14 8 13.857v86.522c0 5.72-3.05 11-8 13.86L743 1094.38c-4.95 2.86-11.05 2.86-16 0l-74.933-43.26c-4.95-2.86-8-8.14-8-13.86v-86.522c0-5.717 3.05-10.999 8-13.857L727 893.619Zm-210 0c4.95-2.858 11.05-2.858 16 0l74.933 43.262c4.95 2.858 8 8.14 8 13.857v86.522c0 5.72-3.05 11-8 13.86L533 1094.38c-4.95 2.86-11.05 2.86-16 0l-74.933-43.26c-4.95-2.86-8-8.14-8-13.86v-86.522c0-5.717 3.05-10.999 8-13.857L517 893.619Zm-210 0c4.95-2.858 11.05-2.858 16 0l74.933 43.262c4.95 2.858 8 8.14 8 13.857v86.522c0 5.72-3.05 11-8 13.86L323 1094.38c-4.95 2.86-11.05 2.86-16 0l-74.933-43.26c-4.95-2.86-8-8.14-8-13.86v-86.522c0-5.717 3.05-10.999 8-13.857L307 893.619Z" opacity=".15"/>
</svg>
