<svg width="52" height="49" fill="none" xmlns="http://www.w3.org/2000/svg"><path d="M26 .4a3.2 3.2 0 00-3.2 3.2v3.2a3.2 3.2 0 006.4 0V3.6A3.2 3.2 0 0026 .4z" fill="#D6D3D1"/><path fill-rule="evenodd" clip-rule="evenodd" d="M6.8 6.8h9.6a9.6 9.6 0 0019.2 0h9.6a6.4 6.4 0 016.4 6.4V42a6.4 6.4 0 01-6.4 6.4H6.8A6.4 6.4 0 01.4 42V13.2a6.4 6.4 0 016.4-6.4zm8 22.4a4.8 4.8 0 100-9.6 4.8 4.8 0 000 9.6zM22.642 42a8 8 0 10-15.68 0h15.68zM32.4 22.8a3.2 3.2 0 000 6.4H42a3.2 3.2 0 000-6.4h-9.6zm-3.2 12.8a3.2 3.2 0 013.2-3.2h6.4a3.2 3.2 0 010 6.4h-6.4a3.2 3.2 0 01-3.2-3.2z" fill="#D6D3D1"/></svg>