<svg version="1.1" id="Capa_1" xmlns="http://www.w3.org/2000/svg" xmlns:xlink="http://www.w3.org/1999/xlink" x="0px" y="0px"
	 width="500px" height="500px" viewBox="0 0 500 500" fill="#555"
	 xml:space="preserve">
<g>
	<path d="M393.904,214.852h-8.891v-72.198c0-76.962-61.075-141.253-137.411-142.625c-2.084-0.038-6.254-0.038-8.338,0
		C162.927,1.4,101.853,65.691,101.853,142.653v1.603c0,16.182,13.118,29.3,29.3,29.3c16.182,0,29.299-13.118,29.299-29.3v-1.603
		c0-45.845,37.257-83.752,82.98-83.752s82.981,37.907,82.981,83.752v72.198H92.963c-13.702,0-24.878,14.139-24.878,31.602v208.701
		c0,17.44,11.176,31.712,24.878,31.712h300.941c13.703,0,24.878-14.271,24.878-31.712V246.452
		C418.783,228.989,407.607,214.852,393.904,214.852z M271.627,350.591v63.062c0,7.222-6.046,13.332-13.273,13.332h-29.841
		c-7.228,0-13.273-6.11-13.273-13.332v-63.062c-7.009-6.9-11.09-16.44-11.09-26.993c0-19.999,15.459-37.185,35.115-37.977
		c2.083-0.085,6.255-0.085,8.337,0c19.656,0.792,35.115,17.978,35.115,37.977C282.717,334.149,278.637,343.69,271.627,350.591z"/>
</g>
</svg>