<svg width="24px" height="24px" viewBox="0 0 24 24" fill="#555" xmlns="http://www.w3.org/2000/svg">
    <path stroke-width="2.5" d="M16.7856 3.72505C15.9102 2.8496 14.4274 3.13517 13.9397 4.27313L12.3471 7.98916C10.848 7.69519 9.23294 8.12825 8.07003 9.29115L6.35994 11.0012C6.06705 11.2941 6.06705 11.769 6.35994 12.0619L8.85525 14.5572L3.46961 19.9429C3.17672 20.2357 3.17672 20.7106 3.46961 21.0035C3.7625 21.2964 4.23738 21.2964 4.53027 21.0035L9.91591 15.6179L12.4113 18.1133C12.5519 18.2539 12.7427 18.3329 12.9416 18.3329C13.1405 18.3329 13.3313 18.2539 13.472 18.1133L15.182 16.4032C16.345 15.2403 16.778 13.6252 16.484 12.1261L20.2001 10.5335C21.338 10.0458 21.6236 8.56301 20.7481 7.68757L16.7856 3.72505ZM15.3184 4.86401C15.3881 4.70144 15.5999 4.66065 15.725 4.78571L19.6875 8.74823C19.8125 8.87329 19.7718 9.08512 19.6092 9.15479L15.2939 11.0042C14.9295 11.1604 14.7496 11.5731 14.8832 11.9463C15.2942 13.0946 15.0388 14.4251 14.1214 15.3425L12.9416 16.5223L7.95093 11.5316L9.13069 10.3518C10.0481 9.4344 11.3786 9.17904 12.5269 9.59004C12.9001 9.72362 13.3128 9.5437 13.469 9.17934L15.3184 4.86401Z"/>
</svg>
