<svg width="20" height="20" viewBox="0 0 20 20" fill="none" xmlns="http://www.w3.org/2000/svg">
<path fill-rule="evenodd" clip-rule="evenodd" d="M0.0996094 3.39998C0.0996094 1.57744 1.57707 0.0999756 3.39961 0.0999756H16.5996C18.4221 0.0999756 19.8996 1.57744 19.8996 3.39998V16.6C19.8996 18.4225 18.4221 19.9 16.5996 19.9H3.39961C1.57707 19.9 0.0996094 18.4225 0.0996094 16.6V3.39998ZM15.7746 9.99998C15.7746 10.2188 15.6877 10.4286 15.533 10.5833L13.058 13.0583C12.7358 13.3805 12.2134 13.3805 11.8912 13.0583C11.5691 12.7362 11.5691 12.2138 11.8912 11.8916L13.7829 9.99998L11.8912 8.10834C11.5691 7.78616 11.5691 7.26379 11.8912 6.94161C12.2134 6.61943 12.7358 6.61943 13.058 6.94161L15.533 9.41661C15.6877 9.57133 15.7746 9.78117 15.7746 9.99998ZM4.46625 9.41661C4.31153 9.57133 4.22461 9.78117 4.22461 9.99997C4.22461 10.2188 4.31153 10.4286 4.46625 10.5833L6.94125 13.0583C7.26343 13.3805 7.78579 13.3805 8.10797 13.0583C8.43015 12.7362 8.43015 12.2138 8.10797 11.8916L6.21634 9.99998L8.10797 8.10834C8.43015 7.78616 8.43015 7.2638 8.10797 6.94161C7.78579 6.61943 7.26343 6.61943 6.94125 6.94161L4.46625 9.41661Z" fill="#78716C"/>
</svg>
