<svg xmlns="http://www.w3.org/2000/svg" width="16" height="16" fill="none">
  <path fill="#A8A29E" d="M12.4446 1.34824C11.129.469191 9.58225 0 8 0v3c2.7614 0 5 2.23858 5 5 0 2.7614-2.2386 5-5 5-2.76142 0-5-2.2386-5-5H0c0 1.58225.46919 3.129 1.34824 4.4446.87905 1.3156 2.12848 2.3409 3.59029 2.9464 1.46181.6055 3.07034.764 4.62219.4553 1.55188-.3087 2.97728-1.0706 4.09618-2.1894 1.1188-1.1189 1.8807-2.5443 2.1894-4.09618.3087-1.55185.1502-3.16038-.4553-4.62219-.6055-1.46181-1.6308-2.71124-2.9464-3.59029Z"/>
</svg>
