<svg width="20" height="20" viewBox="0 0 20 20" fill="none" xmlns="http://www.w3.org/2000/svg">
<path d="M3.75 12.0833C3.55556 11.9305 3.45833 11.736 3.45833 11.4999C3.45833 11.2638 3.55556 11.0694 3.75 10.9166C3.88889 10.8055 4.04167 10.7499 4.20833 10.7499C4.375 10.7499 4.52778 10.8055 4.66667 10.9166L10 15.0833L15.3333 10.8958C15.4722 10.7846 15.625 10.7326 15.7917 10.7395C15.9583 10.7464 16.1111 10.8055 16.25 10.9166C16.4444 11.0694 16.5417 11.2638 16.5417 11.4999C16.5417 11.736 16.4444 11.9305 16.25 12.0833L10.9167 16.2708C10.6389 16.493 10.3333 16.6041 10 16.6041C9.66667 16.6041 9.36111 16.493 9.08333 16.2708L3.75 12.0833ZM9.08333 12.2708L4.5 8.68742C4.11111 8.38186 3.91667 7.98603 3.91667 7.49992C3.91667 7.01381 4.11111 6.61797 4.5 6.31242L9.08333 2.72909C9.36111 2.50686 9.66667 2.39575 10 2.39575C10.3333 2.39575 10.6389 2.50686 10.9167 2.72909L15.5 6.31242C15.8889 6.61797 16.0833 7.01381 16.0833 7.49992C16.0833 7.98603 15.8889 8.38186 15.5 8.68742L10.9167 12.2708C10.6389 12.493 10.3333 12.6041 10 12.6041C9.66667 12.6041 9.36111 12.493 9.08333 12.2708Z" fill="#666564"/>
</svg>
