<svg width="18" height="20" viewBox="0 0 18 20" fill="none" xmlns="http://www.w3.org/2000/svg">
<path d="M6.6001 4.00002C5.93736 4.00002 5.4001 4.53728 5.4001 5.20002C5.4001 5.86276 5.93736 6.40002 6.6001 6.40002L13.303 6.40002L11.7516 7.9515C11.2829 8.42013 11.2829 9.17992 11.7516 9.64855C12.2202 10.1172 12.98 10.1172 13.4486 9.64855L17.0486 6.04855C17.2737 5.82351 17.4001 5.51829 17.4001 5.20003C17.4001 4.88177 17.2737 4.57654 17.0486 4.3515L13.4486 0.751496C12.98 0.282867 12.2202 0.282867 11.7516 0.751496C11.2829 1.22012 11.2829 1.97992 11.7516 2.44855L13.303 4.00002L6.6001 4.00002Z" fill="#A8A29E"/>
<path d="M11.4001 16C12.0628 16 12.6001 15.4628 12.6001 14.8C12.6001 14.1373 12.0628 13.6 11.4001 13.6L4.69715 13.6L6.24863 12.0486C6.71726 11.5799 6.71726 10.8201 6.24863 10.3515C5.78 9.88287 5.0202 9.88287 4.55157 10.3515L0.951569 13.9515C0.726525 14.1765 0.600098 14.4818 0.600098 14.8C0.600098 15.1183 0.726525 15.4235 0.951569 15.6486L4.55157 19.2486C5.0202 19.7172 5.78 19.7172 6.24862 19.2486C6.71725 18.7799 6.71725 18.0201 6.24862 17.5515L4.69715 16L11.4001 16Z" fill="#A8A29E"/>
</svg>
