<svg width="20" height="20" viewBox="0 0 20 20" fill="none" xmlns="http://www.w3.org/2000/svg">
<path d="M14.5 5.5H5.5V14.5H14.5V5.5Z" fill="#78716C"/>
<path fill-rule="evenodd" clip-rule="evenodd" d="M6.25 0.25C6.66421 0.25 7 0.585786 7 1V1.75H9.25V1C9.25 0.585786 9.58579 0.25 10 0.25C10.4142 0.25 10.75 0.585786 10.75 1V1.75H13V1C13 0.585786 13.3358 0.25 13.75 0.25C14.1642 0.25 14.5 0.585786 14.5 1V1.75H15.25C16.9069 1.75 18.25 3.09315 18.25 4.75V5.5H19C19.4142 5.5 19.75 5.83579 19.75 6.25C19.75 6.66421 19.4142 7 19 7H18.25V9.25H19C19.4142 9.25 19.75 9.58579 19.75 10C19.75 10.4142 19.4142 10.75 19 10.75H18.25V13H19C19.4142 13 19.75 13.3358 19.75 13.75C19.75 14.1642 19.4142 14.5 19 14.5H18.25V15.25C18.25 16.9069 16.9069 18.25 15.25 18.25H14.5V19C14.5 19.4142 14.1642 19.75 13.75 19.75C13.3358 19.75 13 19.4142 13 19V18.25H10.75V19C10.75 19.4142 10.4142 19.75 10 19.75C9.58579 19.75 9.25 19.4142 9.25 19V18.25H7V19C7 19.4142 6.66421 19.75 6.25 19.75C5.83579 19.75 5.5 19.4142 5.5 19V18.25H4.75C3.09315 18.25 1.75 16.9069 1.75 15.25V14.5H1C0.585786 14.5 0.25 14.1642 0.25 13.75C0.25 13.3358 0.585786 13 1 13H1.75V10.75H1C0.585786 10.75 0.25 10.4142 0.25 10C0.25 9.58579 0.585786 9.25 1 9.25H1.75V7H1C0.585786 7 0.25 6.66421 0.25 6.25C0.25 5.83579 0.585786 5.5 1 5.5H1.75V4.75C1.75 3.09315 3.09315 1.75 4.75 1.75H5.5V1C5.5 0.585786 5.83579 0.25 6.25 0.25ZM4 4.75C4 4.33579 4.33579 4 4.75 4H15.25C15.6642 4 16 4.33579 16 4.75V15.25C16 15.6642 15.6642 16 15.25 16H4.75C4.33579 16 4 15.6642 4 15.25V4.75Z" fill="#78716C"/>
</svg>
