<?xml version="1.0" encoding="UTF-8"?>
<svg height="60" viewBox="0 0 60 60" width="60" xmlns="http://www.w3.org/2000/svg" xmlns:xlink="http://www.w3.org/1999/xlink">
    <linearGradient id="a" gradientTransform="matrix(1 0 0 -1 0 72)" gradientUnits="userSpaceOnUse" x1="21.47928" x2="37.00642" y1="70.74647" y2="14.8479">
        <stop offset=".285" stop-color="#00cdd7" />
        <stop offset=".941" stop-color="#2086d7" />
    </linearGradient>
    <linearGradient id="b" gradientTransform="matrix(1 0 0 -1 0 72)" gradientUnits="userSpaceOnUse" x1="26.3504" x2="52.61755" y1="63.66951" y2="25.15208">
        <stop offset=".14" stop-color="#fff045" />
        <stop offset=".366" stop-color="#00cdd7" />
    </linearGradient>
    <linearGradient id="c" x1="52.36363" x2="55.81277" xlink:href="#a" y1="58.89644" y2="46.67872" />
    <path d="m8.05714 54.25714-8.05714-48 15-6.17143 9.51429 5.65715 8.74285-4.71429 18.25714 7.02857-10.28571 51.94286z" fill="url(#a)" />
    <path d="m60 20.31429-7.71429-19.11429-14.05714-1.2-21.68571 20.82857 5.82857 26.82857 10.88571 7.71429 26.74286-15.94286-6.6-12.25714z" fill="url(#b)" />
    <path d="m48 17.48571 5.4 9.68572 6.6-6.85714-4.8-11.91429z" fill="url(#c)" />
    <path d="m11.48571 11.48571h37.02857v37.02857h-37.02857z" />
    <g fill="#fff">
        <path d="m15 41.57143h13.88571v2.31429h-13.88571z" />
        <path d="m33.17143 29.4 1.97143-2.4a7.16434 7.16434 0 0 0 4.54285 1.88572c1.37143 0 2.14286-.51429 2.14286-1.45715v-.08571c0-.85715-.51428-1.28572-3.08571-1.97143-3.08572-.77143-4.97143-1.62857-4.97143-4.71429v-.08571c0-2.82857 2.22857-4.62857 5.31429-4.62857a8.573 8.573 0 0 1 5.65714 1.97143l-1.71429 2.57142a7.1775 7.1775 0 0 0 -3.94285-1.54285c-1.28572 0-1.97143.6-1.97143 1.37143v.08571c0 1.02857.68571 1.37143 3.25714 2.05714 3.08571.85715 4.8 1.97143 4.8 4.62857v.08572c0 3.08571-2.31429 4.8-5.57143 4.8a10.146 10.146 0 0 1 -6.42857-2.57143" />
        <path d="m30.17143 16.28571-2.31429 8.91429-2.57143-8.91429h-2.57142l-2.65715 8.91429-2.31428-8.91429h-3.51429l4.37143 15.34286h2.82857l2.57143-8.91428 2.48571 8.91428h2.91429l4.37143-15.34285z" />
    </g>
</svg>
