<svg id="logo-final" xmlns="http://www.w3.org/2000/svg" viewBox="-15 0 205.53 205.53"><defs><style>.cls-1{fill:none;}.cls-2{fill:#fff;}</style></defs><title>Gitpod_Logo_white_cube</title><polygon class="cls-1" points="161.02 144.58 161.02 82.7 107.01 113.44 107.01 134.15 143.02 113.66 143.02 134.14 90.77 164.06 90.77 184.79 161.02 144.58"/><polygon class="cls-1" points="35.74 134.15 35.74 73.96 17.74 63.57 17.74 144.58 87.77 184.7 87.77 163.95 35.74 134.15"/><polygon class="cls-1" points="89.36 41.33 141.48 71.37 159.49 60.97 89.35 20.55 19.27 60.99 37.27 71.38 89.36 41.33"/><polygon class="cls-2" points="17.74 144.58 17.74 63.57 0 53.33 0 154.76 0 154.77 87.77 205.43 87.77 184.7 17.74 144.58"/><polygon class="cls-2" points="87.77 163.95 87.77 104 35.74 73.96 35.74 134.15 87.77 163.95"/><polygon class="cls-2" points="89.35 20.55 159.49 60.97 177.21 50.74 89.35 0 1.49 50.73 19.27 60.99 89.35 20.55"/><polygon class="cls-2" points="141.48 71.37 89.36 41.33 37.27 71.38 89.35 101.45 141.48 71.37"/><polygon class="cls-2" points="90.77 164.06 143.02 134.14 143.02 113.66 107.01 134.15 107.01 113.44 161.02 82.7 161.02 144.58 90.77 184.79 90.77 205.53 178.7 154.78 178.7 154.78 178.7 154.77 178.7 53.35 90.77 104.1 90.77 164.06"/><polygon class="cls-2" points="89.35 103.18 89.35 103.19 89.35 103.19 89.35 103.19 89.35 103.18 89.35 103.18 89.35 103.18"/></svg>