<svg width="20" height="20" viewBox="0 0 20 20" fill="none" xmlns="http://www.w3.org/2000/svg">
<path fill-rule="evenodd" clip-rule="evenodd" d="M8.25706 3.09858C9.02167 1.73928 10.9788 1.73928 11.7434 3.09858L17.3237 13.0191C18.0736 14.3523 17.1102 15.9996 15.5805 15.9996H4.4199C2.89025 15.9996 1.92682 14.3523 2.67675 13.0191L8.25706 3.09858ZM11.0001 12.9998C11.0001 13.552 10.5524 13.9998 10.0001 13.9998C9.44784 13.9998 9.00012 13.552 9.00012 12.9998C9.00012 12.4475 9.44784 11.9998 10.0001 11.9998C10.5524 11.9998 11.0001 12.4475 11.0001 12.9998ZM10.0001 4.99976C9.44784 4.99976 9.00012 5.44747 9.00012 5.99976V8.99976C9.00012 9.55204 9.44784 9.99976 10.0001 9.99976C10.5524 9.99976 11.0001 9.55204 11.0001 8.99976V5.99976C11.0001 5.44747 10.5524 4.99976 10.0001 4.99976Z" fill="#57534E"/>
</svg>
