<svg xmlns="http://www.w3.org/2000/svg" fill="none" viewBox="0 0 140 40"><path fill="#12100C" d="M56.045 30.444C50.188 30.444 46 26.25 46 20.722S50.216 11 55.96 11c2.83 0 5.037 1.083 6.876 2.667l-1.16 2.36C60.26 14.64 58.45 13.5 55.846 13.5c-4.243 0-7.3 2.917-7.3 7.222 0 4.306 3.028 7.222 7.33 7.222 3.706 0 6.337-2.194 6.762-5.527h-7.555v-2.5h10.44v.11c0 6.112-3.508 10.417-9.478 10.417zM68.18 16.556h2.434v13.888H68.18V16.556zM82.14 30.25v-2.111c-.765.139-1.387.222-2.293.222-1.188 0-1.612-.611-1.612-1.667V18.64h3.876v-2.083h-3.877v-3.723h-2.433v3.723H73v2.083H75.8v7.917c0 2.944 1.33 4.027 3.905 4.027.905 0 1.698-.139 2.433-.333z"/><path fill="#12100C" fill-rule="evenodd" d="M87.099 36h-2.434V16.556H87.1v2c1.16-1.528 2.886-2.334 4.98-2.334 4.018 0 6.82 3 6.82 7.278s-2.802 7.278-6.82 7.278c-2.009 0-3.65-.778-4.98-2.361V36zm-.17-12.5c0 3.083 1.868 5.056 4.725 5.056 2.858 0 4.726-2 4.726-5.056s-1.868-5.056-4.725-5.056c-2.858 0-4.726 1.973-4.726 5.056zM100.413 23.5c0 4.167 3.169 7.278 7.413 7.278 4.245 0 7.414-3.111 7.414-7.278s-3.169-7.278-7.414-7.278c-4.244 0-7.413 3.111-7.413 7.278zm12.309 0c0 2.889-1.953 4.972-4.896 4.972-2.942 0-4.895-2.083-4.895-4.972 0-2.889 1.953-4.972 4.895-4.972 2.943 0 4.896 2.083 4.896 4.972zM128.567 11H131v19.444h-2.433v-2c-1.161 1.528-2.887 2.334-4.98 2.334-4.018 0-6.82-3-6.82-7.278s2.802-7.278 6.82-7.278c2.009 0 3.65.778 4.98 2.361V11zm.169 12.5c0-3.083-1.867-5.056-4.725-5.056-2.858 0-4.725 2-4.725 5.056s1.867 5.056 4.725 5.056c2.858 0 4.725-1.973 4.725-5.056z" clip-rule="evenodd"/><path fill="#12100C" d="M69.403 14.73c.961 0 1.74-.762 1.74-1.703 0-.94-.779-1.702-1.74-1.702-.962 0-1.742.762-1.742 1.703 0 .94.78 1.702 1.742 1.702z"/><path fill="url(#paint0_linear)" fill-rule="evenodd" d="M21.388 1.992c1.07 1.895.42 4.31-1.452 5.392L8.302 14.118c-.308.178-.498.51-.498.868v10.57c0 .36.19.69.498.869l9.209 5.33a.975.975 0 00.978 0l9.21-5.33c.307-.178.497-.51.497-.869v-6.573l-8.279 4.73a3.876 3.876 0 01-5.316-1.5c-1.059-1.9-.395-4.311 1.481-5.384l11.846-6.769C31.536 7.998 36 10.64 36 14.835v11.524a7.54 7.54 0 01-3.742 6.53l-10.573 6.12a7.345 7.345 0 01-7.37 0l-10.573-6.12A7.54 7.54 0 010 26.36V14.183a7.54 7.54 0 013.742-6.53L16.064.52a3.876 3.876 0 015.324 1.471z" clip-rule="evenodd"/><defs><linearGradient id="paint0_linear" x1="27.096" x2="8.281" y1="6.049" y2="35.254" gradientUnits="userSpaceOnUse"><stop stop-color="#FFB45B"/><stop offset="1" stop-color="#FF8A00"/></linearGradient></defs></svg>