<svg width="12" height="12" viewBox="0 0 12 12" fill="none" xmlns="http://www.w3.org/2000/svg">
<path fill-rule="evenodd" clip-rule="evenodd" d="M12 6C12 9.31371 9.31371 12 6 12C2.68629 12 0 9.31371 0 6C0 2.68629 2.68629 0 6 0C9.31371 0 12 2.68629 12 6ZM6.75 3C6.75 3.41421 6.41421 3.75 6 3.75C5.58579 3.75 5.25 3.41421 5.25 3C5.25 2.58579 5.58579 2.25 6 2.25C6.41421 2.25 6.75 2.58579 6.75 3ZM5.25 5.25C4.83579 5.25 4.5 5.58579 4.5 6C4.5 6.41421 4.83579 6.75 5.25 6.75V9C5.25 9.41421 5.58579 9.75 6 9.75H6.75C7.16421 9.75 7.5 9.41421 7.5 9C7.5 8.58579 7.16421 8.25 6.75 8.25V6C6.75 5.58579 6.41421 5.25 6 5.25H5.25Z" fill="#78716C"/>
</svg>
