<svg width="299" height="104" viewBox="0 0 299 104" fill="none" xmlns="http://www.w3.org/2000/svg">
<path d="M97.2873 30.2402C99.3022 32.3054 100.597 35.1082 100.597 38.3535V65.0534C100.597 68.2987 99.3022 71.1014 97.2873 73.1666L71.2385 99.8665C69.2237 102.079 66.3454 103.259 63.3231 103.259H37.2743C34.1081 103.259 31.3737 102.079 29.215 99.8665L3.16616 73.1666C1.15133 71.1014 0 68.2987 0 65.0534V38.3535C0 35.1082 1.15133 32.3054 3.16616 30.0927L29.215 3.39281C31.3737 1.32762 34.1081 0 37.2743 0H63.3231C66.3454 0 69.2237 1.32762 71.2385 3.54032L97.2873 30.2402ZM76.7372 67.2967V36.1102C76.7372 29.7671 71.7001 24.4566 65.5117 24.4566H35.0857C28.7534 24.4566 23.7163 29.7671 23.7163 36.1102V67.2967C23.7163 73.6397 28.7534 78.8027 35.0857 78.8027H65.5117C71.7001 78.8027 76.7372 73.6397 76.7372 67.2967Z" fill="white"/>
<path d="M168.219 100.494C167.666 100.494 167.154 100.193 166.876 99.7032L134.535 42.767C133.737 41.3617 131.639 41.9421 131.639 43.5682V98.9019C131.639 99.7814 130.943 100.494 130.085 100.494H110.854C109.996 100.494 109.301 99.7814 109.301 98.9019V4.35757C109.301 3.47813 109.996 2.7652 110.854 2.7652H134.281C134.838 2.7652 135.351 3.06981 135.628 3.56393L167.83 60.9783C168.623 62.3921 170.731 61.8154 170.731 60.1847V4.35756C170.731 3.47812 171.426 2.7652 172.284 2.7652H191.652C192.51 2.7652 193.205 3.47812 193.205 4.35756V98.9019C193.205 99.7814 192.51 100.494 191.652 100.494H168.219Z" fill="white"/>
<path d="M277.754 100.494C277.099 100.494 276.515 100.074 276.293 99.4424L270.495 82.9775C270.273 82.3464 269.689 81.9257 269.034 81.9257H229.536C228.882 81.9257 228.297 82.3464 228.075 82.9775L222.278 99.4424C222.055 100.074 221.471 100.494 220.816 100.494H201.128C200.044 100.494 199.293 99.3846 199.673 98.3437L234.197 3.79931C234.424 3.17732 235.004 2.76513 235.652 2.76513H263.053C263.702 2.76513 264.282 3.17821 264.509 3.80118L298.901 98.3456C299.279 99.3861 298.529 100.494 297.445 100.494H277.754ZM235.591 61.3676C235.229 62.4048 235.979 63.4968 237.054 63.4968H261.517C262.592 63.4968 263.342 62.4048 262.979 61.3676L250.748 26.3576C250.256 24.9503 248.314 24.9503 247.823 26.3576L235.591 61.3676Z" fill="white"/>
</svg>
