<svg xmlns="http://www.w3.org/2000/svg" fill="none" viewBox="0 0 352 169"><rect width="351" height="168" x=".5" y=".5" fill="#292524" stroke="#44403C" rx="11.5"/><path fill="#44403C" d="M144 124h207v33c0 6.075-4.925 11-11 11H144v-44z"/><path fill="#44403C" d="M1 124h207v44H12c-6.075 0-11-4.925-11-11v-33z"/><rect width="113" height="24" x="24" y="22" fill="#78716C" rx="12"/><rect width="24" height="24" x="303" y="22" fill="#78716C" rx="6"/><rect width="168" height="16" x="24" y="62" fill="#78716C" rx="8"/><rect width="80" height="8" x="24" y="102" fill="#57534E" rx="4"/><rect width="80" height="8" x="112" y="102" fill="#57534E" rx="4"/><rect width="80" height="8" x="200" y="102" fill="#57534E" rx="4"/><path fill="#A3E635" d="M36 146a6 6 0 11-12 0 6 6 0 0112 0z"/></svg>