<svg xmlns="http://www.w3.org/2000/svg" width="20" height="20" fill="none">
  <path fill="#FAFAF9" fill-rule="evenodd" d="M17.7778 20H2.22222C.994923 20 0 19.0051 0 17.7778V2.22222C0 .994923.994923 0 2.22222 0H17.7778C19.0051 0 20 .994923 20 2.22222V17.7778C20 19.0051 19.0051 20 17.7778 20Zm-3.5239-2.7782h2.9679v-6.0969c0-2.57965-1.4623-3.82694-3.5049-3.82694-2.0434 0-2.9034 1.59131-2.9034 1.59131V7.59216H7.95327v9.62964h2.86023v-5.055c0-1.3544.6235-2.1604 1.8168-2.1604 1.097 0 1.6236.7745 1.6236 2.1604v5.055ZM2.77734 4.55429c0 .98129.78946 1.77695 1.76371 1.77695.97425 0 1.76324-.79566 1.76324-1.77695S5.5153 2.77734 4.54105 2.77734 2.77734 3.573 2.77734 4.55429ZM6.04662 17.2218H3.06416V7.59216h2.98246v9.62964Z" clip-rule="evenodd"/>
</svg>
