<svg width="64" height="30" viewBox="0 0 64 30" fill="none" xmlns="http://www.w3.org/2000/svg">
<g style="mix-blend-mode:luminosity" opacity="0.6">
<path d="M49.0472 0.0223425C57.3084 0.0223425 64 6.71391 64 14.975C64 23.2306 57.3084 29.9277 49.0473 29.9277H16.0866C14.908 29.9277 13.9529 28.9726 13.9529 27.794C13.9529 26.6155 14.908 25.6603 16.0866 25.6603H23.7668C24.9398 25.6603 25.8949 24.7052 25.8949 23.5266C25.8949 22.3481 24.9398 21.3929 23.7668 21.3929H22.0575C20.879 21.3929 19.9239 20.4378 19.9239 19.2592C19.9239 18.0806 20.879 17.1255 22.0576 17.1255H27.1798C28.3648 17.1222 29.2839 16.1564 29.3133 14.9918C29.3133 13.8132 28.3582 12.8581 27.1796 12.8581H9.25535C8.07678 12.8581 7.12164 11.903 7.12164 10.7244C7.12164 9.54582 8.07678 8.59068 9.25535 8.59068H22.4823C23.6672 8.58738 24.5864 7.62157 24.6158 6.45697C24.6158 5.27841 23.6607 4.32327 22.4821 4.32327H19.4994C18.3208 4.32327 17.3657 3.36813 17.3657 2.18956C17.3657 1.011 18.3208 0 19.4994 0L49.0472 0.0223425ZM46.6566 5.00471C42.0653 5.00471 38.3508 8.72473 38.3508 13.3105V16.634C38.3508 21.2253 42.0653 24.9398 46.6566 24.9398C51.2424 24.9398 54.9625 21.2253 54.9625 16.634V13.3105C54.9625 8.72473 51.2424 5.00471 46.6566 5.00471ZM49.4941 12.8581C50.6001 12.8581 51.4994 13.7574 51.4994 14.8633V15.1203C51.4994 16.2262 50.6001 17.1255 49.4941 17.1255H43.2606C42.1546 17.1255 41.2554 16.2262 41.2554 15.1203V14.8633C41.2554 13.7574 42.1546 12.8581 43.2606 12.8581H49.4941Z" fill="black"/>
<path d="M9.38384 25.6603C10.4954 25.6603 11.3891 26.554 11.3891 27.6656V27.9225C11.3891 29.0285 10.4954 29.9277 9.38384 29.9277H2.00524C0.899284 29.9277 0 29.0285 0 27.9225V27.6656C0 26.554 0.899284 25.6603 2.00524 25.6603H9.38384Z" fill="black"/>
<path d="M12.8022 0.0558586C13.9082 0.0558586 14.8019 0.955143 14.8019 2.0611V2.32362C14.8019 3.42957 13.9082 4.32327 12.8022 4.32327H4.56346C3.45751 4.32327 2.55823 3.42957 2.55823 2.32362V2.0611C2.55823 0.955143 3.45751 0.0558586 4.56346 0.0558586H12.8022Z" fill="black"/>
<path d="M15.3605 17.1255C16.4664 17.1255 17.3657 18.0248 17.3657 19.1307V19.3877C17.3657 20.4936 16.4664 21.3929 15.3605 21.3929H10.8361C9.73016 21.3929 8.83087 20.4936 8.83087 19.3877V19.1307C8.83087 18.0248 9.73016 17.1255 10.8361 17.1255H15.3605Z" fill="black"/>
</g>
</svg>
