<svg xmlns="http://www.w3.org/2000/svg" fill="none" viewBox="0 0 16 16"><rect width="16" height="16" fill="#D6D3D1" rx="8"/><path fill="#A8A29E" fill-rule="evenodd" d="M8.74323 2.03089c.23787.08748.39963.34485.39963.63583v3.33334h2.28574c.213 0 .4084.13831.5068.3588.0984.22049.0835.48654-.0387.69018L7.89671 13.7157c-.14303.2384-.40206.341-.63993.2536-.23787-.0875-.39963-.3449-.39963-.6359v-3.3333H4.57143c-.21307 0-.40845-.13832-.50684-.35881-.0984-.22049-.08348-.48654.03871-.69019l4-6.66669c.14303-.23838.40205-.341.63993-.25352Z" clip-rule="evenodd"/></svg>
