<svg width="352" height="170" fill="none" xmlns="http://www.w3.org/2000/svg"><rect x=".5" y=".5" width="351" height="80" rx="11.5" fill="#FAFAF9" stroke="#F5F5F4"/><rect x="56" y="22" width="168" height="16" rx="8" fill="#D6D3D1"/><rect x="56" y="54" width="80" height="8" rx="4" fill="#E7E5E4"/><rect x="248" y="26" width="80" height="8" rx="4" fill="#E7E5E4"/><rect x="248" y="54" width="48" height="8" rx="4" fill="#E7E5E4"/><rect x=".5" y="89.5" width="351" height="80" rx="11.5" fill="#FAFAF9" stroke="#F5F5F4"/><rect x="248" y="115" width="80" height="8" rx="4" fill="#E7E5E4"/><rect x="248" y="143" width="48" height="8" rx="4" fill="#FFB0AE"/><rect x="56" y="111" width="168" height="16" rx="8" fill="#D6D3D1"/><rect x="56" y="143" width="80" height="8" rx="4" fill="#E7E5E4"/><path d="M36 30a6 6 0 11-12 0 6 6 0 0112 0z" fill="#FFB45B"/><path d="M36 119a6 6 0 11-12 0 6 6 0 0112 0z" fill="#A3E635"/></svg>