<svg width="16" height="16" viewBox="0 0 16 16" fill="none" xmlns="http://www.w3.org/2000/svg">
<path fill-rule="evenodd" clip-rule="evenodd" d="M9.37099 0.796797C9.8037 1.55484 9.54061 2.52051 8.78337 2.95367L4.07518 5.64692C3.95054 5.71822 3.87367 5.85059 3.87367 5.99392V10.223C3.87367 10.3664 3.95054 10.4987 4.07518 10.57L7.80041 12.701C7.92396 12.7717 8.07581 12.7717 8.19936 12.701L11.9246 10.57C12.0492 10.4987 12.1261 10.3664 12.1261 10.223V7.593L8.77589 9.48528C8.01631 9.91432 7.05311 9.6457 6.62454 8.88531C6.19596 8.12492 6.46429 7.1607 7.22388 6.73167L12.0176 4.02406C13.4778 3.19931 15.2844 4.25546 15.2844 5.93383V10.5435C15.2844 11.6232 14.7065 12.6201 13.7701 13.1558L9.49104 15.6036C8.56704 16.1321 7.43273 16.1321 6.50873 15.6036L2.22969 13.1558C1.29325 12.6201 0.715332 11.6232 0.715332 10.5435V5.67341C0.715332 4.59372 1.29325 3.59681 2.22969 3.06113L7.2164 0.208558C7.97364 -0.22461 8.93828 0.038754 9.37099 0.796797Z" fill="url(#paint0_linear_812_300)"/>
<defs>
<linearGradient id="paint0_linear_812_300" x1="11.6809" y1="2.41951" x2="4.19161" y2="14.1813" gradientUnits="userSpaceOnUse">
<stop stop-color="#FFB45B"/>
<stop offset="1" stop-color="#FF8A00"/>
</linearGradient>
</defs>
</svg>
