<svg width="74" height="80" viewBox="0 0 74 80" fill="none" xmlns="http://www.w3.org/2000/svg">
    <path fill-rule="evenodd" clip-rule="evenodd"
          d="M43.8554 3.98398C46.019 7.7742 44.7035 12.6025 40.9174 14.7684L17.3764 28.2346C16.7532 28.5911 16.3688 29.253 16.3688 29.9696V51.1152C16.3688 51.8318 16.7532 52.4936 17.3764 52.8501L36.0026 63.5049C36.6203 63.8583 37.3795 63.8583 37.9973 63.5049L56.6234 52.8501C57.2466 52.4936 57.631 51.8318 57.631 51.1152V37.965L40.88 47.4264C37.082 49.5716 32.2661 48.2285 30.1232 44.4265C27.9803 40.6246 29.322 35.8035 33.1199 33.6583L57.0884 20.1203C64.3894 15.9965 73.4227 21.2773 73.4227 29.6692V52.7177C73.4227 58.1162 70.5331 63.1007 65.8509 65.7791L44.4557 78.0179C39.8357 80.6607 34.1641 80.6607 29.5441 78.0179L8.14896 65.7791C3.46674 63.1007 0.577148 58.1161 0.577148 52.7177V28.3671C0.577148 22.9686 3.46674 17.984 8.14896 15.3056L33.0825 1.04279C36.8687 -1.12305 41.6919 0.19377 43.8554 3.98398Z"
          fill="url(#paint0_linear_812_296)"/>
    <defs>
        <linearGradient id="paint0_linear_812_296" x1="55.405" y1="12.0976" x2="17.9586" y2="70.9063"
                        gradientUnits="userSpaceOnUse">
            <stop stop-color="#FFB45B"/>
            <stop offset="1" stop-color="#FF8A00"/>
        </linearGradient>
    </defs>
</svg>
