<svg width="38" height="40" viewBox="0 0 38 40" fill="none" xmlns="http://www.w3.org/2000/svg">
    <path fill-rule="evenodd" clip-rule="evenodd"
          d="M22.4277 1.99199C23.5095 3.8871 22.8518 6.30126 20.9587 7.38418L9.1882 14.1173C8.8766 14.2956 8.68442 14.6265 8.68442 14.9848V25.5576C8.68442 25.9159 8.8766 26.2468 9.1882 26.4251L18.5013 31.7525C18.8101 31.9292 19.1898 31.9292 19.4986 31.7525L28.8117 26.4251C29.1233 26.2468 29.3155 25.9159 29.3155 25.5576V18.9825L20.94 23.7132C19.041 24.7858 16.633 24.1142 15.5616 22.2133C14.4901 20.3123 15.161 17.9017 17.0599 16.8292L29.0442 10.0602C32.6947 7.99827 37.2113 10.6386 37.2113 14.8346V26.3588C37.2113 29.0581 35.7665 31.5504 33.4254 32.8896L22.7278 39.009C20.4179 40.3303 17.5821 40.3303 15.2721 39.009L4.57448 32.8896C2.23337 31.5504 0.788574 29.0581 0.788574 26.3588V14.1835C0.788574 11.4843 2.23337 8.99201 4.57448 7.65282L17.0412 0.521394C18.9343 -0.561524 21.3459 0.096885 22.4277 1.99199Z"
          fill="url(#paint0_linear_812_297)"/>
    <defs>
        <linearGradient id="paint0_linear_812_297" x1="28.2025" y1="6.04878" x2="9.47928" y2="35.4531"
                        gradientUnits="userSpaceOnUse">
            <stop stop-color="#FFB45B"/>
            <stop offset="1" stop-color="#FF8A00"/>
        </linearGradient>
    </defs>
</svg>
